<?xml version="1.0" encoding="utf-8" standalone="no"?>
<!DOCTYPE svg PUBLIC "-//W3C//DTD SVG 1.1//EN"
  "http://www.w3.org/Graphics/SVG/1.1/DTD/svg11.dtd">
<!-- Created with matplotlib (https://matplotlib.org/) -->
<svg height="345.6pt" version="1.1" viewBox="0 0 460.8 345.6" width="460.8pt" xmlns="http://www.w3.org/2000/svg" xmlns:xlink="http://www.w3.org/1999/xlink">
 <defs>
  <style type="text/css">
*{stroke-linecap:butt;stroke-linejoin:round;}
  </style>
 </defs>
 <g id="figure_1">
  <g id="patch_1">
   <path d="M 0 345.6 
L 460.8 345.6 
L 460.8 0 
L 0 0 
z
" style="fill:#ffffff;"/>
  </g>
  <g id="axes_1">
   <g id="patch_2">
    <path d="M 57.6 307.584 
L 437.76 307.584 
L 437.76 17.28 
L 57.6 17.28 
z
" style="fill:#ffffff;"/>
   </g>
   <g id="matplotlib.axis_1">
    <g id="xtick_1">
     <g id="line2d_1">
      <path clip-path="url(#pfd07bfeb99)" d="M 111.908571 307.584 
L 111.908571 17.28 
" style="fill:none;stroke:#b0b0b0;stroke-linecap:square;stroke-width:0.8;"/>
     </g>
     <g id="line2d_2">
      <defs>
       <path d="M 0 0 
L 0 3.5 
" id="m63829d1973" style="stroke:#000000;stroke-width:0.8;"/>
      </defs>
      <g>
       <use style="stroke:#000000;stroke-width:0.8;" x="111.908571" xlink:href="#m63829d1973" y="307.584"/>
      </g>
     </g>
     <g id="text_1">
      <!-- 10 -->
      <defs>
       <path d="M 12.40625 8.296875 
L 28.515625 8.296875 
L 28.515625 63.921875 
L 10.984375 60.40625 
L 10.984375 69.390625 
L 28.421875 72.90625 
L 38.28125 72.90625 
L 38.28125 8.296875 
L 54.390625 8.296875 
L 54.390625 0 
L 12.40625 0 
z
" id="DejaVuSans-49"/>
       <path d="M 31.78125 66.40625 
Q 24.171875 66.40625 20.328125 58.90625 
Q 16.5 51.421875 16.5 36.375 
Q 16.5 21.390625 20.328125 13.890625 
Q 24.171875 6.390625 31.78125 6.390625 
Q 39.453125 6.390625 43.28125 13.890625 
Q 47.125 21.390625 47.125 36.375 
Q 47.125 51.421875 43.28125 58.90625 
Q 39.453125 66.40625 31.78125 66.40625 
z
M 31.78125 74.21875 
Q 44.046875 74.21875 50.515625 64.515625 
Q 56.984375 54.828125 56.984375 36.375 
Q 56.984375 17.96875 50.515625 8.265625 
Q 44.046875 -1.421875 31.78125 -1.421875 
Q 19.53125 -1.421875 13.0625 8.265625 
Q 6.59375 17.96875 6.59375 36.375 
Q 6.59375 54.828125 13.0625 64.515625 
Q 19.53125 74.21875 31.78125 74.21875 
z
" id="DejaVuSans-48"/>
      </defs>
      <g transform="translate(105.546071 322.182437)scale(0.1 -0.1)">
       <use xlink:href="#DejaVuSans-49"/>
       <use x="63.623047" xlink:href="#DejaVuSans-48"/>
      </g>
     </g>
    </g>
    <g id="xtick_2">
     <g id="line2d_3">
      <path clip-path="url(#pfd07bfeb99)" d="M 172.251429 307.584 
L 172.251429 17.28 
" style="fill:none;stroke:#b0b0b0;stroke-linecap:square;stroke-width:0.8;"/>
     </g>
     <g id="line2d_4">
      <g>
       <use style="stroke:#000000;stroke-width:0.8;" x="172.251429" xlink:href="#m63829d1973" y="307.584"/>
      </g>
     </g>
     <g id="text_2">
      <!-- 20 -->
      <defs>
       <path d="M 19.1875 8.296875 
L 53.609375 8.296875 
L 53.609375 0 
L 7.328125 0 
L 7.328125 8.296875 
Q 12.9375 14.109375 22.625 23.890625 
Q 32.328125 33.6875 34.8125 36.53125 
Q 39.546875 41.84375 41.421875 45.53125 
Q 43.3125 49.21875 43.3125 52.78125 
Q 43.3125 58.59375 39.234375 62.25 
Q 35.15625 65.921875 28.609375 65.921875 
Q 23.96875 65.921875 18.8125 64.3125 
Q 13.671875 62.703125 7.8125 59.421875 
L 7.8125 69.390625 
Q 13.765625 71.78125 18.9375 73 
Q 24.125 74.21875 28.421875 74.21875 
Q 39.75 74.21875 46.484375 68.546875 
Q 53.21875 62.890625 53.21875 53.421875 
Q 53.21875 48.921875 51.53125 44.890625 
Q 49.859375 40.875 45.40625 35.40625 
Q 44.1875 33.984375 37.640625 27.21875 
Q 31.109375 20.453125 19.1875 8.296875 
z
" id="DejaVuSans-50"/>
      </defs>
      <g transform="translate(165.888929 322.182437)scale(0.1 -0.1)">
       <use xlink:href="#DejaVuSans-50"/>
       <use x="63.623047" xlink:href="#DejaVuSans-48"/>
      </g>
     </g>
    </g>
    <g id="xtick_3">
     <g id="line2d_5">
      <path clip-path="url(#pfd07bfeb99)" d="M 232.594286 307.584 
L 232.594286 17.28 
" style="fill:none;stroke:#b0b0b0;stroke-linecap:square;stroke-width:0.8;"/>
     </g>
     <g id="line2d_6">
      <g>
       <use style="stroke:#000000;stroke-width:0.8;" x="232.594286" xlink:href="#m63829d1973" y="307.584"/>
      </g>
     </g>
     <g id="text_3">
      <!-- 30 -->
      <defs>
       <path d="M 40.578125 39.3125 
Q 47.65625 37.796875 51.625 33 
Q 55.609375 28.21875 55.609375 21.1875 
Q 55.609375 10.40625 48.1875 4.484375 
Q 40.765625 -1.421875 27.09375 -1.421875 
Q 22.515625 -1.421875 17.65625 -0.515625 
Q 12.796875 0.390625 7.625 2.203125 
L 7.625 11.71875 
Q 11.71875 9.328125 16.59375 8.109375 
Q 21.484375 6.890625 26.8125 6.890625 
Q 36.078125 6.890625 40.9375 10.546875 
Q 45.796875 14.203125 45.796875 21.1875 
Q 45.796875 27.640625 41.28125 31.265625 
Q 36.765625 34.90625 28.71875 34.90625 
L 20.21875 34.90625 
L 20.21875 43.015625 
L 29.109375 43.015625 
Q 36.375 43.015625 40.234375 45.921875 
Q 44.09375 48.828125 44.09375 54.296875 
Q 44.09375 59.90625 40.109375 62.90625 
Q 36.140625 65.921875 28.71875 65.921875 
Q 24.65625 65.921875 20.015625 65.03125 
Q 15.375 64.15625 9.8125 62.3125 
L 9.8125 71.09375 
Q 15.4375 72.65625 20.34375 73.4375 
Q 25.25 74.21875 29.59375 74.21875 
Q 40.828125 74.21875 47.359375 69.109375 
Q 53.90625 64.015625 53.90625 55.328125 
Q 53.90625 49.265625 50.4375 45.09375 
Q 46.96875 40.921875 40.578125 39.3125 
z
" id="DejaVuSans-51"/>
      </defs>
      <g transform="translate(226.231786 322.182437)scale(0.1 -0.1)">
       <use xlink:href="#DejaVuSans-51"/>
       <use x="63.623047" xlink:href="#DejaVuSans-48"/>
      </g>
     </g>
    </g>
    <g id="xtick_4">
     <g id="line2d_7">
      <path clip-path="url(#pfd07bfeb99)" d="M 292.937143 307.584 
L 292.937143 17.28 
" style="fill:none;stroke:#b0b0b0;stroke-linecap:square;stroke-width:0.8;"/>
     </g>
     <g id="line2d_8">
      <g>
       <use style="stroke:#000000;stroke-width:0.8;" x="292.937143" xlink:href="#m63829d1973" y="307.584"/>
      </g>
     </g>
     <g id="text_4">
      <!-- 40 -->
      <defs>
       <path d="M 37.796875 64.3125 
L 12.890625 25.390625 
L 37.796875 25.390625 
z
M 35.203125 72.90625 
L 47.609375 72.90625 
L 47.609375 25.390625 
L 58.015625 25.390625 
L 58.015625 17.1875 
L 47.609375 17.1875 
L 47.609375 0 
L 37.796875 0 
L 37.796875 17.1875 
L 4.890625 17.1875 
L 4.890625 26.703125 
z
" id="DejaVuSans-52"/>
      </defs>
      <g transform="translate(286.574643 322.182437)scale(0.1 -0.1)">
       <use xlink:href="#DejaVuSans-52"/>
       <use x="63.623047" xlink:href="#DejaVuSans-48"/>
      </g>
     </g>
    </g>
    <g id="xtick_5">
     <g id="line2d_9">
      <path clip-path="url(#pfd07bfeb99)" d="M 353.28 307.584 
L 353.28 17.28 
" style="fill:none;stroke:#b0b0b0;stroke-linecap:square;stroke-width:0.8;"/>
     </g>
     <g id="line2d_10">
      <g>
       <use style="stroke:#000000;stroke-width:0.8;" x="353.28" xlink:href="#m63829d1973" y="307.584"/>
      </g>
     </g>
     <g id="text_5">
      <!-- 50 -->
      <defs>
       <path d="M 10.796875 72.90625 
L 49.515625 72.90625 
L 49.515625 64.59375 
L 19.828125 64.59375 
L 19.828125 46.734375 
Q 21.96875 47.46875 24.109375 47.828125 
Q 26.265625 48.1875 28.421875 48.1875 
Q 40.625 48.1875 47.75 41.5 
Q 54.890625 34.8125 54.890625 23.390625 
Q 54.890625 11.625 47.5625 5.09375 
Q 40.234375 -1.421875 26.90625 -1.421875 
Q 22.3125 -1.421875 17.546875 -0.640625 
Q 12.796875 0.140625 7.71875 1.703125 
L 7.71875 11.625 
Q 12.109375 9.234375 16.796875 8.0625 
Q 21.484375 6.890625 26.703125 6.890625 
Q 35.15625 6.890625 40.078125 11.328125 
Q 45.015625 15.765625 45.015625 23.390625 
Q 45.015625 31 40.078125 35.4375 
Q 35.15625 39.890625 26.703125 39.890625 
Q 22.75 39.890625 18.8125 39.015625 
Q 14.890625 38.140625 10.796875 36.28125 
z
" id="DejaVuSans-53"/>
      </defs>
      <g transform="translate(346.9175 322.182437)scale(0.1 -0.1)">
       <use xlink:href="#DejaVuSans-53"/>
       <use x="63.623047" xlink:href="#DejaVuSans-48"/>
      </g>
     </g>
    </g>
    <g id="xtick_6">
     <g id="line2d_11">
      <path clip-path="url(#pfd07bfeb99)" d="M 413.622857 307.584 
L 413.622857 17.28 
" style="fill:none;stroke:#b0b0b0;stroke-linecap:square;stroke-width:0.8;"/>
     </g>
     <g id="line2d_12">
      <g>
       <use style="stroke:#000000;stroke-width:0.8;" x="413.622857" xlink:href="#m63829d1973" y="307.584"/>
      </g>
     </g>
     <g id="text_6">
      <!-- 60 -->
      <defs>
       <path d="M 33.015625 40.375 
Q 26.375 40.375 22.484375 35.828125 
Q 18.609375 31.296875 18.609375 23.390625 
Q 18.609375 15.53125 22.484375 10.953125 
Q 26.375 6.390625 33.015625 6.390625 
Q 39.65625 6.390625 43.53125 10.953125 
Q 47.40625 15.53125 47.40625 23.390625 
Q 47.40625 31.296875 43.53125 35.828125 
Q 39.65625 40.375 33.015625 40.375 
z
M 52.59375 71.296875 
L 52.59375 62.3125 
Q 48.875 64.0625 45.09375 64.984375 
Q 41.3125 65.921875 37.59375 65.921875 
Q 27.828125 65.921875 22.671875 59.328125 
Q 17.53125 52.734375 16.796875 39.40625 
Q 19.671875 43.65625 24.015625 45.921875 
Q 28.375 48.1875 33.59375 48.1875 
Q 44.578125 48.1875 50.953125 41.515625 
Q 57.328125 34.859375 57.328125 23.390625 
Q 57.328125 12.15625 50.6875 5.359375 
Q 44.046875 -1.421875 33.015625 -1.421875 
Q 20.359375 -1.421875 13.671875 8.265625 
Q 6.984375 17.96875 6.984375 36.375 
Q 6.984375 53.65625 15.1875 63.9375 
Q 23.390625 74.21875 37.203125 74.21875 
Q 40.921875 74.21875 44.703125 73.484375 
Q 48.484375 72.75 52.59375 71.296875 
z
" id="DejaVuSans-54"/>
      </defs>
      <g transform="translate(407.260357 322.182437)scale(0.1 -0.1)">
       <use xlink:href="#DejaVuSans-54"/>
       <use x="63.623047" xlink:href="#DejaVuSans-48"/>
      </g>
     </g>
    </g>
    <g id="text_7">
     <!-- number of discs -->
     <defs>
      <path d="M 54.890625 33.015625 
L 54.890625 0 
L 45.90625 0 
L 45.90625 32.71875 
Q 45.90625 40.484375 42.875 44.328125 
Q 39.84375 48.1875 33.796875 48.1875 
Q 26.515625 48.1875 22.3125 43.546875 
Q 18.109375 38.921875 18.109375 30.90625 
L 18.109375 0 
L 9.078125 0 
L 9.078125 54.6875 
L 18.109375 54.6875 
L 18.109375 46.1875 
Q 21.34375 51.125 25.703125 53.5625 
Q 30.078125 56 35.796875 56 
Q 45.21875 56 50.046875 50.171875 
Q 54.890625 44.34375 54.890625 33.015625 
z
" id="DejaVuSans-110"/>
      <path d="M 8.5 21.578125 
L 8.5 54.6875 
L 17.484375 54.6875 
L 17.484375 21.921875 
Q 17.484375 14.15625 20.5 10.265625 
Q 23.53125 6.390625 29.59375 6.390625 
Q 36.859375 6.390625 41.078125 11.03125 
Q 45.3125 15.671875 45.3125 23.6875 
L 45.3125 54.6875 
L 54.296875 54.6875 
L 54.296875 0 
L 45.3125 0 
L 45.3125 8.40625 
Q 42.046875 3.421875 37.71875 1 
Q 33.40625 -1.421875 27.6875 -1.421875 
Q 18.265625 -1.421875 13.375 4.4375 
Q 8.5 10.296875 8.5 21.578125 
z
M 31.109375 56 
z
" id="DejaVuSans-117"/>
      <path d="M 52 44.1875 
Q 55.375 50.25 60.0625 53.125 
Q 64.75 56 71.09375 56 
Q 79.640625 56 84.28125 50.015625 
Q 88.921875 44.046875 88.921875 33.015625 
L 88.921875 0 
L 79.890625 0 
L 79.890625 32.71875 
Q 79.890625 40.578125 77.09375 44.375 
Q 74.3125 48.1875 68.609375 48.1875 
Q 61.625 48.1875 57.5625 43.546875 
Q 53.515625 38.921875 53.515625 30.90625 
L 53.515625 0 
L 44.484375 0 
L 44.484375 32.71875 
Q 44.484375 40.625 41.703125 44.40625 
Q 38.921875 48.1875 33.109375 48.1875 
Q 26.21875 48.1875 22.15625 43.53125 
Q 18.109375 38.875 18.109375 30.90625 
L 18.109375 0 
L 9.078125 0 
L 9.078125 54.6875 
L 18.109375 54.6875 
L 18.109375 46.1875 
Q 21.1875 51.21875 25.484375 53.609375 
Q 29.78125 56 35.6875 56 
Q 41.65625 56 45.828125 52.96875 
Q 50 49.953125 52 44.1875 
z
" id="DejaVuSans-109"/>
      <path d="M 48.6875 27.296875 
Q 48.6875 37.203125 44.609375 42.84375 
Q 40.53125 48.484375 33.40625 48.484375 
Q 26.265625 48.484375 22.1875 42.84375 
Q 18.109375 37.203125 18.109375 27.296875 
Q 18.109375 17.390625 22.1875 11.75 
Q 26.265625 6.109375 33.40625 6.109375 
Q 40.53125 6.109375 44.609375 11.75 
Q 48.6875 17.390625 48.6875 27.296875 
z
M 18.109375 46.390625 
Q 20.953125 51.265625 25.265625 53.625 
Q 29.59375 56 35.59375 56 
Q 45.5625 56 51.78125 48.09375 
Q 58.015625 40.1875 58.015625 27.296875 
Q 58.015625 14.40625 51.78125 6.484375 
Q 45.5625 -1.421875 35.59375 -1.421875 
Q 29.59375 -1.421875 25.265625 0.953125 
Q 20.953125 3.328125 18.109375 8.203125 
L 18.109375 0 
L 9.078125 0 
L 9.078125 75.984375 
L 18.109375 75.984375 
z
" id="DejaVuSans-98"/>
      <path d="M 56.203125 29.59375 
L 56.203125 25.203125 
L 14.890625 25.203125 
Q 15.484375 15.921875 20.484375 11.0625 
Q 25.484375 6.203125 34.421875 6.203125 
Q 39.59375 6.203125 44.453125 7.46875 
Q 49.3125 8.734375 54.109375 11.28125 
L 54.109375 2.78125 
Q 49.265625 0.734375 44.1875 -0.34375 
Q 39.109375 -1.421875 33.890625 -1.421875 
Q 20.796875 -1.421875 13.15625 6.1875 
Q 5.515625 13.8125 5.515625 26.8125 
Q 5.515625 40.234375 12.765625 48.109375 
Q 20.015625 56 32.328125 56 
Q 43.359375 56 49.78125 48.890625 
Q 56.203125 41.796875 56.203125 29.59375 
z
M 47.21875 32.234375 
Q 47.125 39.59375 43.09375 43.984375 
Q 39.0625 48.390625 32.421875 48.390625 
Q 24.90625 48.390625 20.390625 44.140625 
Q 15.875 39.890625 15.1875 32.171875 
z
" id="DejaVuSans-101"/>
      <path d="M 41.109375 46.296875 
Q 39.59375 47.171875 37.8125 47.578125 
Q 36.03125 48 33.890625 48 
Q 26.265625 48 22.1875 43.046875 
Q 18.109375 38.09375 18.109375 28.8125 
L 18.109375 0 
L 9.078125 0 
L 9.078125 54.6875 
L 18.109375 54.6875 
L 18.109375 46.1875 
Q 20.953125 51.171875 25.484375 53.578125 
Q 30.03125 56 36.53125 56 
Q 37.453125 56 38.578125 55.875 
Q 39.703125 55.765625 41.0625 55.515625 
z
" id="DejaVuSans-114"/>
      <path id="DejaVuSans-32"/>
      <path d="M 30.609375 48.390625 
Q 23.390625 48.390625 19.1875 42.75 
Q 14.984375 37.109375 14.984375 27.296875 
Q 14.984375 17.484375 19.15625 11.84375 
Q 23.34375 6.203125 30.609375 6.203125 
Q 37.796875 6.203125 41.984375 11.859375 
Q 46.1875 17.53125 46.1875 27.296875 
Q 46.1875 37.015625 41.984375 42.703125 
Q 37.796875 48.390625 30.609375 48.390625 
z
M 30.609375 56 
Q 42.328125 56 49.015625 48.375 
Q 55.71875 40.765625 55.71875 27.296875 
Q 55.71875 13.875 49.015625 6.21875 
Q 42.328125 -1.421875 30.609375 -1.421875 
Q 18.84375 -1.421875 12.171875 6.21875 
Q 5.515625 13.875 5.515625 27.296875 
Q 5.515625 40.765625 12.171875 48.375 
Q 18.84375 56 30.609375 56 
z
" id="DejaVuSans-111"/>
      <path d="M 37.109375 75.984375 
L 37.109375 68.5 
L 28.515625 68.5 
Q 23.6875 68.5 21.796875 66.546875 
Q 19.921875 64.59375 19.921875 59.515625 
L 19.921875 54.6875 
L 34.71875 54.6875 
L 34.71875 47.703125 
L 19.921875 47.703125 
L 19.921875 0 
L 10.890625 0 
L 10.890625 47.703125 
L 2.296875 47.703125 
L 2.296875 54.6875 
L 10.890625 54.6875 
L 10.890625 58.5 
Q 10.890625 67.625 15.140625 71.796875 
Q 19.390625 75.984375 28.609375 75.984375 
z
" id="DejaVuSans-102"/>
      <path d="M 45.40625 46.390625 
L 45.40625 75.984375 
L 54.390625 75.984375 
L 54.390625 0 
L 45.40625 0 
L 45.40625 8.203125 
Q 42.578125 3.328125 38.25 0.953125 
Q 33.9375 -1.421875 27.875 -1.421875 
Q 17.96875 -1.421875 11.734375 6.484375 
Q 5.515625 14.40625 5.515625 27.296875 
Q 5.515625 40.1875 11.734375 48.09375 
Q 17.96875 56 27.875 56 
Q 33.9375 56 38.25 53.625 
Q 42.578125 51.265625 45.40625 46.390625 
z
M 14.796875 27.296875 
Q 14.796875 17.390625 18.875 11.75 
Q 22.953125 6.109375 30.078125 6.109375 
Q 37.203125 6.109375 41.296875 11.75 
Q 45.40625 17.390625 45.40625 27.296875 
Q 45.40625 37.203125 41.296875 42.84375 
Q 37.203125 48.484375 30.078125 48.484375 
Q 22.953125 48.484375 18.875 42.84375 
Q 14.796875 37.203125 14.796875 27.296875 
z
" id="DejaVuSans-100"/>
      <path d="M 9.421875 54.6875 
L 18.40625 54.6875 
L 18.40625 0 
L 9.421875 0 
z
M 9.421875 75.984375 
L 18.40625 75.984375 
L 18.40625 64.59375 
L 9.421875 64.59375 
z
" id="DejaVuSans-105"/>
      <path d="M 44.28125 53.078125 
L 44.28125 44.578125 
Q 40.484375 46.53125 36.375 47.5 
Q 32.28125 48.484375 27.875 48.484375 
Q 21.1875 48.484375 17.84375 46.4375 
Q 14.5 44.390625 14.5 40.28125 
Q 14.5 37.15625 16.890625 35.375 
Q 19.28125 33.59375 26.515625 31.984375 
L 29.59375 31.296875 
Q 39.15625 29.25 43.1875 25.515625 
Q 47.21875 21.78125 47.21875 15.09375 
Q 47.21875 7.46875 41.1875 3.015625 
Q 35.15625 -1.421875 24.609375 -1.421875 
Q 20.21875 -1.421875 15.453125 -0.5625 
Q 10.6875 0.296875 5.421875 2 
L 5.421875 11.28125 
Q 10.40625 8.6875 15.234375 7.390625 
Q 20.0625 6.109375 24.8125 6.109375 
Q 31.15625 6.109375 34.5625 8.28125 
Q 37.984375 10.453125 37.984375 14.40625 
Q 37.984375 18.0625 35.515625 20.015625 
Q 33.0625 21.96875 24.703125 23.78125 
L 21.578125 24.515625 
Q 13.234375 26.265625 9.515625 29.90625 
Q 5.8125 33.546875 5.8125 39.890625 
Q 5.8125 47.609375 11.28125 51.796875 
Q 16.75 56 26.8125 56 
Q 31.78125 56 36.171875 55.265625 
Q 40.578125 54.546875 44.28125 53.078125 
z
" id="DejaVuSans-115"/>
      <path d="M 48.78125 52.59375 
L 48.78125 44.1875 
Q 44.96875 46.296875 41.140625 47.34375 
Q 37.3125 48.390625 33.40625 48.390625 
Q 24.65625 48.390625 19.8125 42.84375 
Q 14.984375 37.3125 14.984375 27.296875 
Q 14.984375 17.28125 19.8125 11.734375 
Q 24.65625 6.203125 33.40625 6.203125 
Q 37.3125 6.203125 41.140625 7.25 
Q 44.96875 8.296875 48.78125 10.40625 
L 48.78125 2.09375 
Q 45.015625 0.34375 40.984375 -0.53125 
Q 36.96875 -1.421875 32.421875 -1.421875 
Q 20.0625 -1.421875 12.78125 6.34375 
Q 5.515625 14.109375 5.515625 27.296875 
Q 5.515625 40.671875 12.859375 48.328125 
Q 20.21875 56 33.015625 56 
Q 37.15625 56 41.109375 55.140625 
Q 45.0625 54.296875 48.78125 52.59375 
z
" id="DejaVuSans-99"/>
     </defs>
     <g transform="translate(207.646406 335.860562)scale(0.1 -0.1)">
      <use xlink:href="#DejaVuSans-110"/>
      <use x="63.378906" xlink:href="#DejaVuSans-117"/>
      <use x="126.757812" xlink:href="#DejaVuSans-109"/>
      <use x="224.169922" xlink:href="#DejaVuSans-98"/>
      <use x="287.646484" xlink:href="#DejaVuSans-101"/>
      <use x="349.169922" xlink:href="#DejaVuSans-114"/>
      <use x="390.283203" xlink:href="#DejaVuSans-32"/>
      <use x="422.070312" xlink:href="#DejaVuSans-111"/>
      <use x="483.251953" xlink:href="#DejaVuSans-102"/>
      <use x="518.457031" xlink:href="#DejaVuSans-32"/>
      <use x="550.244141" xlink:href="#DejaVuSans-100"/>
      <use x="613.720703" xlink:href="#DejaVuSans-105"/>
      <use x="641.503906" xlink:href="#DejaVuSans-115"/>
      <use x="693.603516" xlink:href="#DejaVuSans-99"/>
      <use x="748.583984" xlink:href="#DejaVuSans-115"/>
     </g>
    </g>
   </g>
   <g id="matplotlib.axis_2">
    <g id="ytick_1">
     <g id="line2d_13">
      <path clip-path="url(#pfd07bfeb99)" d="M 57.6 272.800457 
L 437.76 272.800457 
" style="fill:none;stroke:#b0b0b0;stroke-linecap:square;stroke-width:0.8;"/>
     </g>
     <g id="line2d_14">
      <defs>
       <path d="M 0 0 
L -3.5 0 
" id="m6bb6e91f9c" style="stroke:#000000;stroke-width:0.8;"/>
      </defs>
      <g>
       <use style="stroke:#000000;stroke-width:0.8;" x="57.6" xlink:href="#m6bb6e91f9c" y="272.800457"/>
      </g>
     </g>
     <g id="text_8">
      <!-- 2000 -->
      <g transform="translate(25.15 276.599676)scale(0.1 -0.1)">
       <use xlink:href="#DejaVuSans-50"/>
       <use x="63.623047" xlink:href="#DejaVuSans-48"/>
       <use x="127.246094" xlink:href="#DejaVuSans-48"/>
       <use x="190.869141" xlink:href="#DejaVuSans-48"/>
      </g>
     </g>
    </g>
    <g id="ytick_2">
     <g id="line2d_15">
      <path clip-path="url(#pfd07bfeb99)" d="M 57.6 215.372836 
L 437.76 215.372836 
" style="fill:none;stroke:#b0b0b0;stroke-linecap:square;stroke-width:0.8;"/>
     </g>
     <g id="line2d_16">
      <g>
       <use style="stroke:#000000;stroke-width:0.8;" x="57.6" xlink:href="#m6bb6e91f9c" y="215.372836"/>
      </g>
     </g>
     <g id="text_9">
      <!-- 4000 -->
      <g transform="translate(25.15 219.172055)scale(0.1 -0.1)">
       <use xlink:href="#DejaVuSans-52"/>
       <use x="63.623047" xlink:href="#DejaVuSans-48"/>
       <use x="127.246094" xlink:href="#DejaVuSans-48"/>
       <use x="190.869141" xlink:href="#DejaVuSans-48"/>
      </g>
     </g>
    </g>
    <g id="ytick_3">
     <g id="line2d_17">
      <path clip-path="url(#pfd07bfeb99)" d="M 57.6 157.945215 
L 437.76 157.945215 
" style="fill:none;stroke:#b0b0b0;stroke-linecap:square;stroke-width:0.8;"/>
     </g>
     <g id="line2d_18">
      <g>
       <use style="stroke:#000000;stroke-width:0.8;" x="57.6" xlink:href="#m6bb6e91f9c" y="157.945215"/>
      </g>
     </g>
     <g id="text_10">
      <!-- 6000 -->
      <g transform="translate(25.15 161.744433)scale(0.1 -0.1)">
       <use xlink:href="#DejaVuSans-54"/>
       <use x="63.623047" xlink:href="#DejaVuSans-48"/>
       <use x="127.246094" xlink:href="#DejaVuSans-48"/>
       <use x="190.869141" xlink:href="#DejaVuSans-48"/>
      </g>
     </g>
    </g>
    <g id="ytick_4">
     <g id="line2d_19">
      <path clip-path="url(#pfd07bfeb99)" d="M 57.6 100.517594 
L 437.76 100.517594 
" style="fill:none;stroke:#b0b0b0;stroke-linecap:square;stroke-width:0.8;"/>
     </g>
     <g id="line2d_20">
      <g>
       <use style="stroke:#000000;stroke-width:0.8;" x="57.6" xlink:href="#m6bb6e91f9c" y="100.517594"/>
      </g>
     </g>
     <g id="text_11">
      <!-- 8000 -->
      <defs>
       <path d="M 31.78125 34.625 
Q 24.75 34.625 20.71875 30.859375 
Q 16.703125 27.09375 16.703125 20.515625 
Q 16.703125 13.921875 20.71875 10.15625 
Q 24.75 6.390625 31.78125 6.390625 
Q 38.8125 6.390625 42.859375 10.171875 
Q 46.921875 13.96875 46.921875 20.515625 
Q 46.921875 27.09375 42.890625 30.859375 
Q 38.875 34.625 31.78125 34.625 
z
M 21.921875 38.8125 
Q 15.578125 40.375 12.03125 44.71875 
Q 8.5 49.078125 8.5 55.328125 
Q 8.5 64.0625 14.71875 69.140625 
Q 20.953125 74.21875 31.78125 74.21875 
Q 42.671875 74.21875 48.875 69.140625 
Q 55.078125 64.0625 55.078125 55.328125 
Q 55.078125 49.078125 51.53125 44.71875 
Q 48 40.375 41.703125 38.8125 
Q 48.828125 37.15625 52.796875 32.3125 
Q 56.78125 27.484375 56.78125 20.515625 
Q 56.78125 9.90625 50.3125 4.234375 
Q 43.84375 -1.421875 31.78125 -1.421875 
Q 19.734375 -1.421875 13.25 4.234375 
Q 6.78125 9.90625 6.78125 20.515625 
Q 6.78125 27.484375 10.78125 32.3125 
Q 14.796875 37.15625 21.921875 38.8125 
z
M 18.3125 54.390625 
Q 18.3125 48.734375 21.84375 45.5625 
Q 25.390625 42.390625 31.78125 42.390625 
Q 38.140625 42.390625 41.71875 45.5625 
Q 45.3125 48.734375 45.3125 54.390625 
Q 45.3125 60.0625 41.71875 63.234375 
Q 38.140625 66.40625 31.78125 66.40625 
Q 25.390625 66.40625 21.84375 63.234375 
Q 18.3125 60.0625 18.3125 54.390625 
z
" id="DejaVuSans-56"/>
      </defs>
      <g transform="translate(25.15 104.316812)scale(0.1 -0.1)">
       <use xlink:href="#DejaVuSans-56"/>
       <use x="63.623047" xlink:href="#DejaVuSans-48"/>
       <use x="127.246094" xlink:href="#DejaVuSans-48"/>
       <use x="190.869141" xlink:href="#DejaVuSans-48"/>
      </g>
     </g>
    </g>
    <g id="ytick_5">
     <g id="line2d_21">
      <path clip-path="url(#pfd07bfeb99)" d="M 57.6 43.089972 
L 437.76 43.089972 
" style="fill:none;stroke:#b0b0b0;stroke-linecap:square;stroke-width:0.8;"/>
     </g>
     <g id="line2d_22">
      <g>
       <use style="stroke:#000000;stroke-width:0.8;" x="57.6" xlink:href="#m6bb6e91f9c" y="43.089972"/>
      </g>
     </g>
     <g id="text_12">
      <!-- 10000 -->
      <g transform="translate(18.7875 46.889191)scale(0.1 -0.1)">
       <use xlink:href="#DejaVuSans-49"/>
       <use x="63.623047" xlink:href="#DejaVuSans-48"/>
       <use x="127.246094" xlink:href="#DejaVuSans-48"/>
       <use x="190.869141" xlink:href="#DejaVuSans-48"/>
       <use x="254.492188" xlink:href="#DejaVuSans-48"/>
      </g>
     </g>
    </g>
    <g id="text_13">
     <!-- MB/s -->
     <defs>
      <path d="M 9.8125 72.90625 
L 24.515625 72.90625 
L 43.109375 23.296875 
L 61.8125 72.90625 
L 76.515625 72.90625 
L 76.515625 0 
L 66.890625 0 
L 66.890625 64.015625 
L 48.09375 14.015625 
L 38.1875 14.015625 
L 19.390625 64.015625 
L 19.390625 0 
L 9.8125 0 
z
" id="DejaVuSans-77"/>
      <path d="M 19.671875 34.8125 
L 19.671875 8.109375 
L 35.5 8.109375 
Q 43.453125 8.109375 47.28125 11.40625 
Q 51.125 14.703125 51.125 21.484375 
Q 51.125 28.328125 47.28125 31.5625 
Q 43.453125 34.8125 35.5 34.8125 
z
M 19.671875 64.796875 
L 19.671875 42.828125 
L 34.28125 42.828125 
Q 41.5 42.828125 45.03125 45.53125 
Q 48.578125 48.25 48.578125 53.8125 
Q 48.578125 59.328125 45.03125 62.0625 
Q 41.5 64.796875 34.28125 64.796875 
z
M 9.8125 72.90625 
L 35.015625 72.90625 
Q 46.296875 72.90625 52.390625 68.21875 
Q 58.5 63.53125 58.5 54.890625 
Q 58.5 48.1875 55.375 44.234375 
Q 52.25 40.28125 46.1875 39.3125 
Q 53.46875 37.75 57.5 32.78125 
Q 61.53125 27.828125 61.53125 20.40625 
Q 61.53125 10.640625 54.890625 5.3125 
Q 48.25 0 35.984375 0 
L 9.8125 0 
z
" id="DejaVuSans-66"/>
      <path d="M 25.390625 72.90625 
L 33.6875 72.90625 
L 8.296875 -9.28125 
L 0 -9.28125 
z
" id="DejaVuSans-47"/>
     </defs>
     <g transform="translate(12.707813 174.465594)rotate(-90)scale(0.1 -0.1)">
      <use xlink:href="#DejaVuSans-77"/>
      <use x="86.279297" xlink:href="#DejaVuSans-66"/>
      <use x="154.882812" xlink:href="#DejaVuSans-47"/>
      <use x="188.574219" xlink:href="#DejaVuSans-115"/>
     </g>
    </g>
   </g>
   <g id="line2d_23">
    <path clip-path="url(#pfd07bfeb99)" d="M 57.6 293.950029 
L 63.634286 250.979279 
L 69.668571 220.995219 
L 75.702857 196.236623 
L 81.737143 175.414063 
L 87.771429 153.925421 
L 93.805714 132.783308 
L 99.84 117.998584 
L 105.874286 103.499792 
L 111.908571 92.764949 
L 117.942857 85.596366 
L 123.977143 76.488593 
L 130.011429 66.525068 
L 136.045714 64.364046 
L 142.08 58.475163 
L 148.114286 54.003604 
L 154.148571 51.998067 
L 160.182857 46.052766 
L 166.217143 43.580519 
L 172.251429 40.505982 
L 178.285714 39.743692 
L 184.32 39.483164 
L 190.354286 40.988985 
L 196.388571 38.270959 
L 202.422857 37.460018 
L 208.457143 42.034992 
L 214.491429 95.26821 
L 220.525714 118.372957 
L 226.56 119.504965 
L 232.594286 120.008074 
L 238.628571 119.645478 
L 244.662857 119.803937 
L 250.697143 120.634702 
L 256.731429 122.149945 
L 262.765714 120.579181 
L 268.8 121.648182 
L 274.834286 120.40516 
L 280.868571 121.682756 
L 286.902857 120.79818 
L 292.937143 121.918664 
L 298.971429 122.491538 
L 305.005714 121.452093 
L 311.04 121.760654 
L 317.074286 121.595718 
L 323.108571 120.805219 
L 329.142857 121.040089 
L 335.177143 121.397918 
L 341.211429 121.520148 
L 347.245714 121.507782 
L 353.28 121.392842 
L 359.314286 121.168684 
L 365.348571 121.272828 
L 371.382857 121.507333 
L 377.417143 121.70603 
L 383.451429 121.779974 
L 389.485714 121.409667 
L 395.52 121.770721 
L 401.554286 121.341976 
L 407.588571 121.206146 
L 413.622857 121.219662 
L 419.657143 121.272996 
L 425.691429 121.433473 
L 431.725714 121.336004 
L 437.76 120.419517 
" style="fill:none;stroke:#1f77b4;stroke-linecap:square;"/>
   </g>
   <g id="line2d_24">
    <path clip-path="url(#pfd07bfeb99)" d="M 57.6 292.913107 
L 63.634286 254.279657 
L 69.668571 226.181426 
L 75.702857 197.684175 
L 81.737143 170.302781 
L 87.771429 150.93812 
L 93.805714 128.789649 
L 99.84 115.026228 
L 105.874286 102.853984 
L 111.908571 90.682581 
L 117.942857 82.479292 
L 123.977143 73.575655 
L 130.011429 68.074885 
L 136.045714 60.11572 
L 142.08 55.577676 
L 148.114286 52.988301 
L 154.148571 52.021622 
L 160.182857 47.85467 
L 166.217143 44.832738 
L 172.251429 42.975397 
L 178.285714 39.749973 
L 184.32 39.060168 
L 190.354286 39.12455 
L 196.388571 38.832982 
L 202.422857 37.965202 
L 208.457143 38.083254 
L 214.491429 68.91597 
L 220.525714 119.138556 
L 226.56 119.729853 
L 232.594286 120.069035 
L 238.628571 121.736034 
L 244.662857 122.612927 
L 250.697143 120.545757 
L 256.731429 120.757381 
L 262.765714 124.184896 
L 268.8 120.982325 
L 274.834286 121.443652 
L 280.868571 120.838587 
L 286.902857 122.117978 
L 292.937143 122.478864 
L 298.971429 121.17418 
L 305.005714 121.93919 
L 311.04 121.181274 
L 317.074286 121.352071 
L 323.108571 121.44225 
L 329.142857 121.361268 
L 335.177143 121.250956 
L 341.211429 121.577968 
L 347.245714 121.335274 
L 353.28 120.972062 
L 359.314286 121.257209 
L 365.348571 121.197622 
L 371.382857 121.742568 
L 377.417143 122.983879 
L 383.451429 120.906586 
L 389.485714 121.906074 
L 395.52 121.186209 
L 401.554286 122.91888 
L 407.588571 120.857347 
L 413.622857 120.822716 
L 419.657143 121.759476 
L 425.691429 121.35008 
L 431.725714 120.826838 
L 437.76 120.185741 
" style="fill:none;stroke:#ff7f0e;stroke-linecap:square;"/>
   </g>
   <g id="line2d_25">
    <path clip-path="url(#pfd07bfeb99)" d="M 57.6 294.18776 
L 63.634286 253.586011 
L 69.668571 223.454512 
L 75.702857 206.61776 
L 81.737143 183.892461 
L 87.771429 158.935561 
L 93.805714 142.710856 
L 99.84 129.769087 
L 105.874286 113.847111 
L 111.908571 97.907329 
L 117.942857 88.755923 
L 123.977143 81.483057 
L 130.011429 74.977192 
L 136.045714 74.007007 
L 142.08 72.8153 
L 148.114286 70.802529 
L 154.148571 71.740803 
L 160.182857 68.874385 
L 166.217143 67.622671 
L 172.251429 65.151909 
L 178.285714 64.142131 
L 184.32 63.851123 
L 190.354286 65.731205 
L 196.388571 66.008977 
L 202.422857 66.454209 
L 208.457143 66.896049 
L 214.491429 69.274696 
L 220.525714 68.730396 
L 226.56 70.327657 
L 232.594286 69.992009 
L 238.628571 71.093789 
L 244.662857 71.398957 
L 250.697143 71.500437 
L 256.731429 71.666579 
L 262.765714 73.5544 
L 268.8 72.955083 
L 274.834286 73.171979 
L 280.868571 72.757592 
L 286.902857 72.230368 
L 292.937143 72.53262 
L 298.971429 72.509823 
L 305.005714 72.611275 
L 311.04 72.131889 
L 317.074286 71.895561 
L 323.108571 72.134693 
L 329.142857 72.031446 
L 335.177143 73.230893 
L 341.211429 71.909048 
L 347.245714 71.489193 
L 353.28 71.788501 
L 359.314286 71.417857 
L 365.348571 70.757103 
L 371.382857 70.679682 
L 377.417143 71.187473 
L 383.451429 71.00361 
L 389.485714 71.237835 
L 395.52 70.546937 
L 401.554286 70.618357 
L 407.588571 70.249227 
L 413.622857 70.756766 
L 419.657143 70.448401 
L 425.691429 71.562828 
L 431.725714 70.980644 
L 437.76 70.013488 
" style="fill:none;stroke:#2ca02c;stroke-linecap:square;"/>
   </g>
   <g id="line2d_26">
    <path clip-path="url(#pfd07bfeb99)" d="M 57.6 292.408316 
L 63.634286 250.244609 
L 69.668571 218.12552 
L 75.702857 195.938437 
L 81.737143 168.497428 
L 87.771429 147.365045 
L 93.805714 122.27969 
L 99.84 112.245391 
L 105.874286 94.354499 
L 111.908571 80.076473 
L 117.942857 68.580461 
L 123.977143 58.276438 
L 130.011429 52.767592 
L 136.045714 52.372497 
L 142.08 45.975654 
L 148.114286 39.201606 
L 154.148571 37.739557 
L 160.182857 34.21275 
L 166.217143 36.899735 
L 172.251429 30.970389 
L 178.285714 30.475636 
L 184.32 31.813997 
L 190.354286 39.200877 
L 196.388571 33.499924 
L 202.422857 37.092291 
L 208.457143 44.517166 
L 214.491429 48.657507 
L 220.525714 51.206503 
L 226.56 55.688045 
L 232.594286 56.555207 
L 238.628571 57.264893 
L 244.662857 57.999618 
L 250.697143 61.256 
L 256.731429 61.51448 
L 262.765714 62.880377 
L 268.8 62.959845 
L 274.834286 63.122145 
L 280.868571 63.616085 
L 286.902857 64.525757 
L 292.937143 65.22832 
L 298.971429 65.654597 
L 305.005714 65.816953 
L 311.04 66.272028 
L 317.074286 66.163061 
L 323.108571 65.379012 
L 329.142857 66.817843 
L 335.177143 66.722672 
L 341.211429 66.06161 
L 347.245714 66.434777 
L 353.28 65.773742 
L 359.314286 64.931985 
L 365.348571 65.836778 
L 371.382857 64.596224 
L 377.417143 66.184709 
L 383.451429 66.241211 
L 389.485714 66.337447 
L 395.52 65.957382 
L 401.554286 65.562651 
L 407.588571 65.82674 
L 413.622857 65.28973 
L 419.657143 65.579363 
L 425.691429 64.753056 
L 431.725714 64.426941 
L 437.76 64.475648 
" style="fill:none;stroke:#d62728;stroke-linecap:square;"/>
   </g>
   <g id="line2d_27">
    <path clip-path="url(#pfd07bfeb99)" d="M 57.6 294.388364 
L 63.634286 252.703706 
L 69.668571 223.04133 
L 75.702857 199.305552 
L 81.737143 171.83653 
L 87.771429 152.831633 
L 93.805714 130.313864 
L 99.84 110.336679 
L 105.874286 97.347045 
L 111.908571 91.837358 
L 117.942857 80.942149 
L 123.977143 75.475393 
L 130.011429 73.361816 
L 136.045714 68.260263 
L 142.08 68.613157 
L 148.114286 68.22782 
L 154.148571 72.482399 
L 160.182857 70.262715 
L 166.217143 66.499692 
L 172.251429 65.708295 
L 178.285714 64.717725 
L 184.32 65.814037 
L 190.354286 66.19228 
L 196.388571 66.316837 
L 202.422857 67.248746 
L 208.457143 67.915417 
L 214.491429 69.118004 
L 220.525714 69.961781 
L 226.56 69.945293 
L 232.594286 69.518848 
L 238.628571 71.837656 
L 244.662857 71.258613 
L 250.697143 71.942613 
L 256.731429 72.091398 
L 262.765714 71.981365 
L 268.8 72.266148 
L 274.834286 72.52589 
L 280.868571 72.435599 
L 286.902857 73.618137 
L 292.937143 73.403652 
L 298.971429 72.956121 
L 305.005714 72.810897 
L 311.04 71.988656 
L 317.074286 72.277561 
L 323.108571 72.322903 
L 329.142857 71.821084 
L 335.177143 72.375199 
L 341.211429 71.585429 
L 347.245714 71.576428 
L 353.28 70.952519 
L 359.314286 71.473518 
L 365.348571 71.439645 
L 371.382857 71.225413 
L 377.417143 71.484033 
L 383.451429 71.347166 
L 389.485714 70.287868 
L 395.52 70.643537 
L 401.554286 70.770703 
L 407.588571 71.694872 
L 413.622857 70.134989 
L 419.657143 69.957547 
L 425.691429 69.469328 
L 431.725714 69.279071 
L 437.76 70.097582 
" style="fill:none;stroke:#9467bd;stroke-linecap:square;"/>
   </g>
   <g id="patch_3">
    <path d="M 57.6 307.584 
L 57.6 17.28 
" style="fill:none;stroke:#000000;stroke-linecap:square;stroke-linejoin:miter;stroke-width:0.8;"/>
   </g>
   <g id="patch_4">
    <path d="M 437.76 307.584 
L 437.76 17.28 
" style="fill:none;stroke:#000000;stroke-linecap:square;stroke-linejoin:miter;stroke-width:0.8;"/>
   </g>
   <g id="patch_5">
    <path d="M 57.6 307.584 
L 437.76 307.584 
" style="fill:none;stroke:#000000;stroke-linecap:square;stroke-linejoin:miter;stroke-width:0.8;"/>
   </g>
   <g id="patch_6">
    <path d="M 57.6 17.28 
L 437.76 17.28 
" style="fill:none;stroke:#000000;stroke-linecap:square;stroke-linejoin:miter;stroke-width:0.8;"/>
   </g>
   <g id="text_14">
    <!-- Read Bandwidth -->
    <defs>
     <path d="M 44.390625 34.1875 
Q 47.5625 33.109375 50.5625 29.59375 
Q 53.5625 26.078125 56.59375 19.921875 
L 66.609375 0 
L 56 0 
L 46.6875 18.703125 
Q 43.0625 26.03125 39.671875 28.421875 
Q 36.28125 30.8125 30.421875 30.8125 
L 19.671875 30.8125 
L 19.671875 0 
L 9.8125 0 
L 9.8125 72.90625 
L 32.078125 72.90625 
Q 44.578125 72.90625 50.734375 67.671875 
Q 56.890625 62.453125 56.890625 51.90625 
Q 56.890625 45.015625 53.6875 40.46875 
Q 50.484375 35.9375 44.390625 34.1875 
z
M 19.671875 64.796875 
L 19.671875 38.921875 
L 32.078125 38.921875 
Q 39.203125 38.921875 42.84375 42.21875 
Q 46.484375 45.515625 46.484375 51.90625 
Q 46.484375 58.296875 42.84375 61.546875 
Q 39.203125 64.796875 32.078125 64.796875 
z
" id="DejaVuSans-82"/>
     <path d="M 34.28125 27.484375 
Q 23.390625 27.484375 19.1875 25 
Q 14.984375 22.515625 14.984375 16.5 
Q 14.984375 11.71875 18.140625 8.90625 
Q 21.296875 6.109375 26.703125 6.109375 
Q 34.1875 6.109375 38.703125 11.40625 
Q 43.21875 16.703125 43.21875 25.484375 
L 43.21875 27.484375 
z
M 52.203125 31.203125 
L 52.203125 0 
L 43.21875 0 
L 43.21875 8.296875 
Q 40.140625 3.328125 35.546875 0.953125 
Q 30.953125 -1.421875 24.3125 -1.421875 
Q 15.921875 -1.421875 10.953125 3.296875 
Q 6 8.015625 6 15.921875 
Q 6 25.140625 12.171875 29.828125 
Q 18.359375 34.515625 30.609375 34.515625 
L 43.21875 34.515625 
L 43.21875 35.40625 
Q 43.21875 41.609375 39.140625 45 
Q 35.0625 48.390625 27.6875 48.390625 
Q 23 48.390625 18.546875 47.265625 
Q 14.109375 46.140625 10.015625 43.890625 
L 10.015625 52.203125 
Q 14.9375 54.109375 19.578125 55.046875 
Q 24.21875 56 28.609375 56 
Q 40.484375 56 46.34375 49.84375 
Q 52.203125 43.703125 52.203125 31.203125 
z
" id="DejaVuSans-97"/>
     <path d="M 4.203125 54.6875 
L 13.1875 54.6875 
L 24.421875 12.015625 
L 35.59375 54.6875 
L 46.1875 54.6875 
L 57.421875 12.015625 
L 68.609375 54.6875 
L 77.59375 54.6875 
L 63.28125 0 
L 52.6875 0 
L 40.921875 44.828125 
L 29.109375 0 
L 18.5 0 
z
" id="DejaVuSans-119"/>
     <path d="M 18.3125 70.21875 
L 18.3125 54.6875 
L 36.8125 54.6875 
L 36.8125 47.703125 
L 18.3125 47.703125 
L 18.3125 18.015625 
Q 18.3125 11.328125 20.140625 9.421875 
Q 21.96875 7.515625 27.59375 7.515625 
L 36.8125 7.515625 
L 36.8125 0 
L 27.59375 0 
Q 17.1875 0 13.234375 3.875 
Q 9.28125 7.765625 9.28125 18.015625 
L 9.28125 47.703125 
L 2.6875 47.703125 
L 2.6875 54.6875 
L 9.28125 54.6875 
L 9.28125 70.21875 
z
" id="DejaVuSans-116"/>
     <path d="M 54.890625 33.015625 
L 54.890625 0 
L 45.90625 0 
L 45.90625 32.71875 
Q 45.90625 40.484375 42.875 44.328125 
Q 39.84375 48.1875 33.796875 48.1875 
Q 26.515625 48.1875 22.3125 43.546875 
Q 18.109375 38.921875 18.109375 30.90625 
L 18.109375 0 
L 9.078125 0 
L 9.078125 75.984375 
L 18.109375 75.984375 
L 18.109375 46.1875 
Q 21.34375 51.125 25.703125 53.5625 
Q 30.078125 56 35.796875 56 
Q 45.21875 56 50.046875 50.171875 
Q 54.890625 44.34375 54.890625 33.015625 
z
" id="DejaVuSans-104"/>
    </defs>
    <g transform="translate(198.4875 11.28)scale(0.12 -0.12)">
     <use xlink:href="#DejaVuSans-82"/>
     <use x="69.419922" xlink:href="#DejaVuSans-101"/>
     <use x="130.943359" xlink:href="#DejaVuSans-97"/>
     <use x="192.222656" xlink:href="#DejaVuSans-100"/>
     <use x="255.699219" xlink:href="#DejaVuSans-32"/>
     <use x="287.486328" xlink:href="#DejaVuSans-66"/>
     <use x="356.089844" xlink:href="#DejaVuSans-97"/>
     <use x="417.369141" xlink:href="#DejaVuSans-110"/>
     <use x="480.748047" xlink:href="#DejaVuSans-100"/>
     <use x="544.224609" xlink:href="#DejaVuSans-119"/>
     <use x="626.011719" xlink:href="#DejaVuSans-105"/>
     <use x="653.794922" xlink:href="#DejaVuSans-100"/>
     <use x="717.271484" xlink:href="#DejaVuSans-116"/>
     <use x="756.480469" xlink:href="#DejaVuSans-104"/>
    </g>
   </g>
   <g id="legend_1">
    <g id="patch_7">
     <path d="M 288.469375 302.584 
L 430.76 302.584 
Q 432.76 302.584 432.76 300.584 
L 432.76 228.193375 
Q 432.76 226.193375 430.76 226.193375 
L 288.469375 226.193375 
Q 286.469375 226.193375 286.469375 228.193375 
L 286.469375 300.584 
Q 286.469375 302.584 288.469375 302.584 
z
" style="fill:#ffffff;opacity:0.8;stroke:#cccccc;stroke-linejoin:miter;"/>
    </g>
    <g id="line2d_28">
     <path d="M 290.469375 234.291812 
L 310.469375 234.291812 
" style="fill:none;stroke:#1f77b4;stroke-linecap:square;"/>
    </g>
    <g id="line2d_29"/>
    <g id="text_15">
     <!-- nvme dual numa -->
     <defs>
      <path d="M 2.984375 54.6875 
L 12.5 54.6875 
L 29.59375 8.796875 
L 46.6875 54.6875 
L 56.203125 54.6875 
L 35.6875 0 
L 23.484375 0 
z
" id="DejaVuSans-118"/>
      <path d="M 9.421875 75.984375 
L 18.40625 75.984375 
L 18.40625 0 
L 9.421875 0 
z
" id="DejaVuSans-108"/>
     </defs>
     <g transform="translate(318.469375 237.791812)scale(0.1 -0.1)">
      <use xlink:href="#DejaVuSans-110"/>
      <use x="63.378906" xlink:href="#DejaVuSans-118"/>
      <use x="122.558594" xlink:href="#DejaVuSans-109"/>
      <use x="219.970703" xlink:href="#DejaVuSans-101"/>
      <use x="281.494141" xlink:href="#DejaVuSans-32"/>
      <use x="313.28125" xlink:href="#DejaVuSans-100"/>
      <use x="376.757812" xlink:href="#DejaVuSans-117"/>
      <use x="440.136719" xlink:href="#DejaVuSans-97"/>
      <use x="501.416016" xlink:href="#DejaVuSans-108"/>
      <use x="529.199219" xlink:href="#DejaVuSans-32"/>
      <use x="560.986328" xlink:href="#DejaVuSans-110"/>
      <use x="624.365234" xlink:href="#DejaVuSans-117"/>
      <use x="687.744141" xlink:href="#DejaVuSans-109"/>
      <use x="785.15625" xlink:href="#DejaVuSans-97"/>
     </g>
    </g>
    <g id="line2d_30">
     <path d="M 290.469375 248.969937 
L 310.469375 248.969937 
" style="fill:none;stroke:#ff7f0e;stroke-linecap:square;"/>
    </g>
    <g id="line2d_31"/>
    <g id="text_16">
     <!-- nvme dual rr -->
     <g transform="translate(318.469375 252.469937)scale(0.1 -0.1)">
      <use xlink:href="#DejaVuSans-110"/>
      <use x="63.378906" xlink:href="#DejaVuSans-118"/>
      <use x="122.558594" xlink:href="#DejaVuSans-109"/>
      <use x="219.970703" xlink:href="#DejaVuSans-101"/>
      <use x="281.494141" xlink:href="#DejaVuSans-32"/>
      <use x="313.28125" xlink:href="#DejaVuSans-100"/>
      <use x="376.757812" xlink:href="#DejaVuSans-117"/>
      <use x="440.136719" xlink:href="#DejaVuSans-97"/>
      <use x="501.416016" xlink:href="#DejaVuSans-108"/>
      <use x="529.199219" xlink:href="#DejaVuSans-32"/>
      <use x="560.986328" xlink:href="#DejaVuSans-114"/>
      <use x="602.083984" xlink:href="#DejaVuSans-114"/>
     </g>
    </g>
    <g id="line2d_32">
     <path d="M 290.469375 263.648062 
L 310.469375 263.648062 
" style="fill:none;stroke:#2ca02c;stroke-linecap:square;"/>
    </g>
    <g id="line2d_33"/>
    <g id="text_17">
     <!-- rnbd dual min-inflight -->
     <defs>
      <path d="M 4.890625 31.390625 
L 31.203125 31.390625 
L 31.203125 23.390625 
L 4.890625 23.390625 
z
" id="DejaVuSans-45"/>
      <path d="M 45.40625 27.984375 
Q 45.40625 37.75 41.375 43.109375 
Q 37.359375 48.484375 30.078125 48.484375 
Q 22.859375 48.484375 18.828125 43.109375 
Q 14.796875 37.75 14.796875 27.984375 
Q 14.796875 18.265625 18.828125 12.890625 
Q 22.859375 7.515625 30.078125 7.515625 
Q 37.359375 7.515625 41.375 12.890625 
Q 45.40625 18.265625 45.40625 27.984375 
z
M 54.390625 6.78125 
Q 54.390625 -7.171875 48.1875 -13.984375 
Q 42 -20.796875 29.203125 -20.796875 
Q 24.46875 -20.796875 20.265625 -20.09375 
Q 16.0625 -19.390625 12.109375 -17.921875 
L 12.109375 -9.1875 
Q 16.0625 -11.328125 19.921875 -12.34375 
Q 23.78125 -13.375 27.78125 -13.375 
Q 36.625 -13.375 41.015625 -8.765625 
Q 45.40625 -4.15625 45.40625 5.171875 
L 45.40625 9.625 
Q 42.625 4.78125 38.28125 2.390625 
Q 33.9375 0 27.875 0 
Q 17.828125 0 11.671875 7.65625 
Q 5.515625 15.328125 5.515625 27.984375 
Q 5.515625 40.671875 11.671875 48.328125 
Q 17.828125 56 27.875 56 
Q 33.9375 56 38.28125 53.609375 
Q 42.625 51.21875 45.40625 46.390625 
L 45.40625 54.6875 
L 54.390625 54.6875 
z
" id="DejaVuSans-103"/>
     </defs>
     <g transform="translate(318.469375 267.148062)scale(0.1 -0.1)">
      <use xlink:href="#DejaVuSans-114"/>
      <use x="41.097656" xlink:href="#DejaVuSans-110"/>
      <use x="104.476562" xlink:href="#DejaVuSans-98"/>
      <use x="167.953125" xlink:href="#DejaVuSans-100"/>
      <use x="231.429688" xlink:href="#DejaVuSans-32"/>
      <use x="263.216797" xlink:href="#DejaVuSans-100"/>
      <use x="326.693359" xlink:href="#DejaVuSans-117"/>
      <use x="390.072266" xlink:href="#DejaVuSans-97"/>
      <use x="451.351562" xlink:href="#DejaVuSans-108"/>
      <use x="479.134766" xlink:href="#DejaVuSans-32"/>
      <use x="510.921875" xlink:href="#DejaVuSans-109"/>
      <use x="608.333984" xlink:href="#DejaVuSans-105"/>
      <use x="636.117188" xlink:href="#DejaVuSans-110"/>
      <use x="699.496094" xlink:href="#DejaVuSans-45"/>
      <use x="735.580078" xlink:href="#DejaVuSans-105"/>
      <use x="763.363281" xlink:href="#DejaVuSans-110"/>
      <use x="826.742188" xlink:href="#DejaVuSans-102"/>
      <use x="861.947266" xlink:href="#DejaVuSans-108"/>
      <use x="889.730469" xlink:href="#DejaVuSans-105"/>
      <use x="917.513672" xlink:href="#DejaVuSans-103"/>
      <use x="980.990234" xlink:href="#DejaVuSans-104"/>
      <use x="1044.369141" xlink:href="#DejaVuSans-116"/>
     </g>
    </g>
    <g id="line2d_34">
     <path d="M 290.469375 278.326188 
L 310.469375 278.326188 
" style="fill:none;stroke:#d62728;stroke-linecap:square;"/>
    </g>
    <g id="line2d_35"/>
    <g id="text_18">
     <!-- rnbd dual min-latency -->
     <defs>
      <path d="M 32.171875 -5.078125 
Q 28.375 -14.84375 24.75 -17.8125 
Q 21.140625 -20.796875 15.09375 -20.796875 
L 7.90625 -20.796875 
L 7.90625 -13.28125 
L 13.1875 -13.28125 
Q 16.890625 -13.28125 18.9375 -11.515625 
Q 21 -9.765625 23.484375 -3.21875 
L 25.09375 0.875 
L 2.984375 54.6875 
L 12.5 54.6875 
L 29.59375 11.921875 
L 46.6875 54.6875 
L 56.203125 54.6875 
z
" id="DejaVuSans-121"/>
     </defs>
     <g transform="translate(318.469375 281.826188)scale(0.1 -0.1)">
      <use xlink:href="#DejaVuSans-114"/>
      <use x="41.097656" xlink:href="#DejaVuSans-110"/>
      <use x="104.476562" xlink:href="#DejaVuSans-98"/>
      <use x="167.953125" xlink:href="#DejaVuSans-100"/>
      <use x="231.429688" xlink:href="#DejaVuSans-32"/>
      <use x="263.216797" xlink:href="#DejaVuSans-100"/>
      <use x="326.693359" xlink:href="#DejaVuSans-117"/>
      <use x="390.072266" xlink:href="#DejaVuSans-97"/>
      <use x="451.351562" xlink:href="#DejaVuSans-108"/>
      <use x="479.134766" xlink:href="#DejaVuSans-32"/>
      <use x="510.921875" xlink:href="#DejaVuSans-109"/>
      <use x="608.333984" xlink:href="#DejaVuSans-105"/>
      <use x="636.117188" xlink:href="#DejaVuSans-110"/>
      <use x="699.496094" xlink:href="#DejaVuSans-45"/>
      <use x="735.580078" xlink:href="#DejaVuSans-108"/>
      <use x="763.363281" xlink:href="#DejaVuSans-97"/>
      <use x="824.642578" xlink:href="#DejaVuSans-116"/>
      <use x="863.851562" xlink:href="#DejaVuSans-101"/>
      <use x="925.375" xlink:href="#DejaVuSans-110"/>
      <use x="988.753906" xlink:href="#DejaVuSans-99"/>
      <use x="1043.734375" xlink:href="#DejaVuSans-121"/>
     </g>
    </g>
    <g id="line2d_36">
     <path d="M 290.469375 293.004312 
L 310.469375 293.004312 
" style="fill:none;stroke:#9467bd;stroke-linecap:square;"/>
    </g>
    <g id="line2d_37"/>
    <g id="text_19">
     <!-- rnbd dual rr -->
     <g transform="translate(318.469375 296.504312)scale(0.1 -0.1)">
      <use xlink:href="#DejaVuSans-114"/>
      <use x="41.097656" xlink:href="#DejaVuSans-110"/>
      <use x="104.476562" xlink:href="#DejaVuSans-98"/>
      <use x="167.953125" xlink:href="#DejaVuSans-100"/>
      <use x="231.429688" xlink:href="#DejaVuSans-32"/>
      <use x="263.216797" xlink:href="#DejaVuSans-100"/>
      <use x="326.693359" xlink:href="#DejaVuSans-117"/>
      <use x="390.072266" xlink:href="#DejaVuSans-97"/>
      <use x="451.351562" xlink:href="#DejaVuSans-108"/>
      <use x="479.134766" xlink:href="#DejaVuSans-32"/>
      <use x="510.921875" xlink:href="#DejaVuSans-114"/>
      <use x="552.019531" xlink:href="#DejaVuSans-114"/>
     </g>
    </g>
   </g>
  </g>
 </g>
 <defs>
  <clipPath id="pfd07bfeb99">
   <rect height="290.304" width="380.16" x="57.6" y="17.28"/>
  </clipPath>
 </defs>
</svg>
