<?xml version="1.0" encoding="utf-8" standalone="no"?>
<!DOCTYPE svg PUBLIC "-//W3C//DTD SVG 1.1//EN"
  "http://www.w3.org/Graphics/SVG/1.1/DTD/svg11.dtd">
<!-- Created with matplotlib (https://matplotlib.org/) -->
<svg height="345.6pt" version="1.1" viewBox="0 0 460.8 345.6" width="460.8pt" xmlns="http://www.w3.org/2000/svg" xmlns:xlink="http://www.w3.org/1999/xlink">
 <defs>
  <style type="text/css">
*{stroke-linecap:butt;stroke-linejoin:round;}
  </style>
 </defs>
 <g id="figure_1">
  <g id="patch_1">
   <path d="M 0 345.6 
L 460.8 345.6 
L 460.8 0 
L 0 0 
z
" style="fill:#ffffff;"/>
  </g>
  <g id="axes_1">
   <g id="patch_2">
    <path d="M 57.6 307.584 
L 437.76 307.584 
L 437.76 17.28 
L 57.6 17.28 
z
" style="fill:#ffffff;"/>
   </g>
   <g id="matplotlib.axis_1">
    <g id="xtick_1">
     <g id="line2d_1">
      <path clip-path="url(#p1c2eb5b350)" d="M 111.908571 307.584 
L 111.908571 17.28 
" style="fill:none;stroke:#b0b0b0;stroke-linecap:square;stroke-width:0.8;"/>
     </g>
     <g id="line2d_2">
      <defs>
       <path d="M 0 0 
L 0 3.5 
" id="md6dc7cac1b" style="stroke:#000000;stroke-width:0.8;"/>
      </defs>
      <g>
       <use style="stroke:#000000;stroke-width:0.8;" x="111.908571" xlink:href="#md6dc7cac1b" y="307.584"/>
      </g>
     </g>
     <g id="text_1">
      <!-- 10 -->
      <defs>
       <path d="M 12.40625 8.296875 
L 28.515625 8.296875 
L 28.515625 63.921875 
L 10.984375 60.40625 
L 10.984375 69.390625 
L 28.421875 72.90625 
L 38.28125 72.90625 
L 38.28125 8.296875 
L 54.390625 8.296875 
L 54.390625 0 
L 12.40625 0 
z
" id="DejaVuSans-49"/>
       <path d="M 31.78125 66.40625 
Q 24.171875 66.40625 20.328125 58.90625 
Q 16.5 51.421875 16.5 36.375 
Q 16.5 21.390625 20.328125 13.890625 
Q 24.171875 6.390625 31.78125 6.390625 
Q 39.453125 6.390625 43.28125 13.890625 
Q 47.125 21.390625 47.125 36.375 
Q 47.125 51.421875 43.28125 58.90625 
Q 39.453125 66.40625 31.78125 66.40625 
z
M 31.78125 74.21875 
Q 44.046875 74.21875 50.515625 64.515625 
Q 56.984375 54.828125 56.984375 36.375 
Q 56.984375 17.96875 50.515625 8.265625 
Q 44.046875 -1.421875 31.78125 -1.421875 
Q 19.53125 -1.421875 13.0625 8.265625 
Q 6.59375 17.96875 6.59375 36.375 
Q 6.59375 54.828125 13.0625 64.515625 
Q 19.53125 74.21875 31.78125 74.21875 
z
" id="DejaVuSans-48"/>
      </defs>
      <g transform="translate(105.546071 322.182437)scale(0.1 -0.1)">
       <use xlink:href="#DejaVuSans-49"/>
       <use x="63.623047" xlink:href="#DejaVuSans-48"/>
      </g>
     </g>
    </g>
    <g id="xtick_2">
     <g id="line2d_3">
      <path clip-path="url(#p1c2eb5b350)" d="M 172.251429 307.584 
L 172.251429 17.28 
" style="fill:none;stroke:#b0b0b0;stroke-linecap:square;stroke-width:0.8;"/>
     </g>
     <g id="line2d_4">
      <g>
       <use style="stroke:#000000;stroke-width:0.8;" x="172.251429" xlink:href="#md6dc7cac1b" y="307.584"/>
      </g>
     </g>
     <g id="text_2">
      <!-- 20 -->
      <defs>
       <path d="M 19.1875 8.296875 
L 53.609375 8.296875 
L 53.609375 0 
L 7.328125 0 
L 7.328125 8.296875 
Q 12.9375 14.109375 22.625 23.890625 
Q 32.328125 33.6875 34.8125 36.53125 
Q 39.546875 41.84375 41.421875 45.53125 
Q 43.3125 49.21875 43.3125 52.78125 
Q 43.3125 58.59375 39.234375 62.25 
Q 35.15625 65.921875 28.609375 65.921875 
Q 23.96875 65.921875 18.8125 64.3125 
Q 13.671875 62.703125 7.8125 59.421875 
L 7.8125 69.390625 
Q 13.765625 71.78125 18.9375 73 
Q 24.125 74.21875 28.421875 74.21875 
Q 39.75 74.21875 46.484375 68.546875 
Q 53.21875 62.890625 53.21875 53.421875 
Q 53.21875 48.921875 51.53125 44.890625 
Q 49.859375 40.875 45.40625 35.40625 
Q 44.1875 33.984375 37.640625 27.21875 
Q 31.109375 20.453125 19.1875 8.296875 
z
" id="DejaVuSans-50"/>
      </defs>
      <g transform="translate(165.888929 322.182437)scale(0.1 -0.1)">
       <use xlink:href="#DejaVuSans-50"/>
       <use x="63.623047" xlink:href="#DejaVuSans-48"/>
      </g>
     </g>
    </g>
    <g id="xtick_3">
     <g id="line2d_5">
      <path clip-path="url(#p1c2eb5b350)" d="M 232.594286 307.584 
L 232.594286 17.28 
" style="fill:none;stroke:#b0b0b0;stroke-linecap:square;stroke-width:0.8;"/>
     </g>
     <g id="line2d_6">
      <g>
       <use style="stroke:#000000;stroke-width:0.8;" x="232.594286" xlink:href="#md6dc7cac1b" y="307.584"/>
      </g>
     </g>
     <g id="text_3">
      <!-- 30 -->
      <defs>
       <path d="M 40.578125 39.3125 
Q 47.65625 37.796875 51.625 33 
Q 55.609375 28.21875 55.609375 21.1875 
Q 55.609375 10.40625 48.1875 4.484375 
Q 40.765625 -1.421875 27.09375 -1.421875 
Q 22.515625 -1.421875 17.65625 -0.515625 
Q 12.796875 0.390625 7.625 2.203125 
L 7.625 11.71875 
Q 11.71875 9.328125 16.59375 8.109375 
Q 21.484375 6.890625 26.8125 6.890625 
Q 36.078125 6.890625 40.9375 10.546875 
Q 45.796875 14.203125 45.796875 21.1875 
Q 45.796875 27.640625 41.28125 31.265625 
Q 36.765625 34.90625 28.71875 34.90625 
L 20.21875 34.90625 
L 20.21875 43.015625 
L 29.109375 43.015625 
Q 36.375 43.015625 40.234375 45.921875 
Q 44.09375 48.828125 44.09375 54.296875 
Q 44.09375 59.90625 40.109375 62.90625 
Q 36.140625 65.921875 28.71875 65.921875 
Q 24.65625 65.921875 20.015625 65.03125 
Q 15.375 64.15625 9.8125 62.3125 
L 9.8125 71.09375 
Q 15.4375 72.65625 20.34375 73.4375 
Q 25.25 74.21875 29.59375 74.21875 
Q 40.828125 74.21875 47.359375 69.109375 
Q 53.90625 64.015625 53.90625 55.328125 
Q 53.90625 49.265625 50.4375 45.09375 
Q 46.96875 40.921875 40.578125 39.3125 
z
" id="DejaVuSans-51"/>
      </defs>
      <g transform="translate(226.231786 322.182437)scale(0.1 -0.1)">
       <use xlink:href="#DejaVuSans-51"/>
       <use x="63.623047" xlink:href="#DejaVuSans-48"/>
      </g>
     </g>
    </g>
    <g id="xtick_4">
     <g id="line2d_7">
      <path clip-path="url(#p1c2eb5b350)" d="M 292.937143 307.584 
L 292.937143 17.28 
" style="fill:none;stroke:#b0b0b0;stroke-linecap:square;stroke-width:0.8;"/>
     </g>
     <g id="line2d_8">
      <g>
       <use style="stroke:#000000;stroke-width:0.8;" x="292.937143" xlink:href="#md6dc7cac1b" y="307.584"/>
      </g>
     </g>
     <g id="text_4">
      <!-- 40 -->
      <defs>
       <path d="M 37.796875 64.3125 
L 12.890625 25.390625 
L 37.796875 25.390625 
z
M 35.203125 72.90625 
L 47.609375 72.90625 
L 47.609375 25.390625 
L 58.015625 25.390625 
L 58.015625 17.1875 
L 47.609375 17.1875 
L 47.609375 0 
L 37.796875 0 
L 37.796875 17.1875 
L 4.890625 17.1875 
L 4.890625 26.703125 
z
" id="DejaVuSans-52"/>
      </defs>
      <g transform="translate(286.574643 322.182437)scale(0.1 -0.1)">
       <use xlink:href="#DejaVuSans-52"/>
       <use x="63.623047" xlink:href="#DejaVuSans-48"/>
      </g>
     </g>
    </g>
    <g id="xtick_5">
     <g id="line2d_9">
      <path clip-path="url(#p1c2eb5b350)" d="M 353.28 307.584 
L 353.28 17.28 
" style="fill:none;stroke:#b0b0b0;stroke-linecap:square;stroke-width:0.8;"/>
     </g>
     <g id="line2d_10">
      <g>
       <use style="stroke:#000000;stroke-width:0.8;" x="353.28" xlink:href="#md6dc7cac1b" y="307.584"/>
      </g>
     </g>
     <g id="text_5">
      <!-- 50 -->
      <defs>
       <path d="M 10.796875 72.90625 
L 49.515625 72.90625 
L 49.515625 64.59375 
L 19.828125 64.59375 
L 19.828125 46.734375 
Q 21.96875 47.46875 24.109375 47.828125 
Q 26.265625 48.1875 28.421875 48.1875 
Q 40.625 48.1875 47.75 41.5 
Q 54.890625 34.8125 54.890625 23.390625 
Q 54.890625 11.625 47.5625 5.09375 
Q 40.234375 -1.421875 26.90625 -1.421875 
Q 22.3125 -1.421875 17.546875 -0.640625 
Q 12.796875 0.140625 7.71875 1.703125 
L 7.71875 11.625 
Q 12.109375 9.234375 16.796875 8.0625 
Q 21.484375 6.890625 26.703125 6.890625 
Q 35.15625 6.890625 40.078125 11.328125 
Q 45.015625 15.765625 45.015625 23.390625 
Q 45.015625 31 40.078125 35.4375 
Q 35.15625 39.890625 26.703125 39.890625 
Q 22.75 39.890625 18.8125 39.015625 
Q 14.890625 38.140625 10.796875 36.28125 
z
" id="DejaVuSans-53"/>
      </defs>
      <g transform="translate(346.9175 322.182437)scale(0.1 -0.1)">
       <use xlink:href="#DejaVuSans-53"/>
       <use x="63.623047" xlink:href="#DejaVuSans-48"/>
      </g>
     </g>
    </g>
    <g id="xtick_6">
     <g id="line2d_11">
      <path clip-path="url(#p1c2eb5b350)" d="M 413.622857 307.584 
L 413.622857 17.28 
" style="fill:none;stroke:#b0b0b0;stroke-linecap:square;stroke-width:0.8;"/>
     </g>
     <g id="line2d_12">
      <g>
       <use style="stroke:#000000;stroke-width:0.8;" x="413.622857" xlink:href="#md6dc7cac1b" y="307.584"/>
      </g>
     </g>
     <g id="text_6">
      <!-- 60 -->
      <defs>
       <path d="M 33.015625 40.375 
Q 26.375 40.375 22.484375 35.828125 
Q 18.609375 31.296875 18.609375 23.390625 
Q 18.609375 15.53125 22.484375 10.953125 
Q 26.375 6.390625 33.015625 6.390625 
Q 39.65625 6.390625 43.53125 10.953125 
Q 47.40625 15.53125 47.40625 23.390625 
Q 47.40625 31.296875 43.53125 35.828125 
Q 39.65625 40.375 33.015625 40.375 
z
M 52.59375 71.296875 
L 52.59375 62.3125 
Q 48.875 64.0625 45.09375 64.984375 
Q 41.3125 65.921875 37.59375 65.921875 
Q 27.828125 65.921875 22.671875 59.328125 
Q 17.53125 52.734375 16.796875 39.40625 
Q 19.671875 43.65625 24.015625 45.921875 
Q 28.375 48.1875 33.59375 48.1875 
Q 44.578125 48.1875 50.953125 41.515625 
Q 57.328125 34.859375 57.328125 23.390625 
Q 57.328125 12.15625 50.6875 5.359375 
Q 44.046875 -1.421875 33.015625 -1.421875 
Q 20.359375 -1.421875 13.671875 8.265625 
Q 6.984375 17.96875 6.984375 36.375 
Q 6.984375 53.65625 15.1875 63.9375 
Q 23.390625 74.21875 37.203125 74.21875 
Q 40.921875 74.21875 44.703125 73.484375 
Q 48.484375 72.75 52.59375 71.296875 
z
" id="DejaVuSans-54"/>
      </defs>
      <g transform="translate(407.260357 322.182437)scale(0.1 -0.1)">
       <use xlink:href="#DejaVuSans-54"/>
       <use x="63.623047" xlink:href="#DejaVuSans-48"/>
      </g>
     </g>
    </g>
    <g id="text_7">
     <!-- number of jobs -->
     <defs>
      <path d="M 54.890625 33.015625 
L 54.890625 0 
L 45.90625 0 
L 45.90625 32.71875 
Q 45.90625 40.484375 42.875 44.328125 
Q 39.84375 48.1875 33.796875 48.1875 
Q 26.515625 48.1875 22.3125 43.546875 
Q 18.109375 38.921875 18.109375 30.90625 
L 18.109375 0 
L 9.078125 0 
L 9.078125 54.6875 
L 18.109375 54.6875 
L 18.109375 46.1875 
Q 21.34375 51.125 25.703125 53.5625 
Q 30.078125 56 35.796875 56 
Q 45.21875 56 50.046875 50.171875 
Q 54.890625 44.34375 54.890625 33.015625 
z
" id="DejaVuSans-110"/>
      <path d="M 8.5 21.578125 
L 8.5 54.6875 
L 17.484375 54.6875 
L 17.484375 21.921875 
Q 17.484375 14.15625 20.5 10.265625 
Q 23.53125 6.390625 29.59375 6.390625 
Q 36.859375 6.390625 41.078125 11.03125 
Q 45.3125 15.671875 45.3125 23.6875 
L 45.3125 54.6875 
L 54.296875 54.6875 
L 54.296875 0 
L 45.3125 0 
L 45.3125 8.40625 
Q 42.046875 3.421875 37.71875 1 
Q 33.40625 -1.421875 27.6875 -1.421875 
Q 18.265625 -1.421875 13.375 4.4375 
Q 8.5 10.296875 8.5 21.578125 
z
M 31.109375 56 
z
" id="DejaVuSans-117"/>
      <path d="M 52 44.1875 
Q 55.375 50.25 60.0625 53.125 
Q 64.75 56 71.09375 56 
Q 79.640625 56 84.28125 50.015625 
Q 88.921875 44.046875 88.921875 33.015625 
L 88.921875 0 
L 79.890625 0 
L 79.890625 32.71875 
Q 79.890625 40.578125 77.09375 44.375 
Q 74.3125 48.1875 68.609375 48.1875 
Q 61.625 48.1875 57.5625 43.546875 
Q 53.515625 38.921875 53.515625 30.90625 
L 53.515625 0 
L 44.484375 0 
L 44.484375 32.71875 
Q 44.484375 40.625 41.703125 44.40625 
Q 38.921875 48.1875 33.109375 48.1875 
Q 26.21875 48.1875 22.15625 43.53125 
Q 18.109375 38.875 18.109375 30.90625 
L 18.109375 0 
L 9.078125 0 
L 9.078125 54.6875 
L 18.109375 54.6875 
L 18.109375 46.1875 
Q 21.1875 51.21875 25.484375 53.609375 
Q 29.78125 56 35.6875 56 
Q 41.65625 56 45.828125 52.96875 
Q 50 49.953125 52 44.1875 
z
" id="DejaVuSans-109"/>
      <path d="M 48.6875 27.296875 
Q 48.6875 37.203125 44.609375 42.84375 
Q 40.53125 48.484375 33.40625 48.484375 
Q 26.265625 48.484375 22.1875 42.84375 
Q 18.109375 37.203125 18.109375 27.296875 
Q 18.109375 17.390625 22.1875 11.75 
Q 26.265625 6.109375 33.40625 6.109375 
Q 40.53125 6.109375 44.609375 11.75 
Q 48.6875 17.390625 48.6875 27.296875 
z
M 18.109375 46.390625 
Q 20.953125 51.265625 25.265625 53.625 
Q 29.59375 56 35.59375 56 
Q 45.5625 56 51.78125 48.09375 
Q 58.015625 40.1875 58.015625 27.296875 
Q 58.015625 14.40625 51.78125 6.484375 
Q 45.5625 -1.421875 35.59375 -1.421875 
Q 29.59375 -1.421875 25.265625 0.953125 
Q 20.953125 3.328125 18.109375 8.203125 
L 18.109375 0 
L 9.078125 0 
L 9.078125 75.984375 
L 18.109375 75.984375 
z
" id="DejaVuSans-98"/>
      <path d="M 56.203125 29.59375 
L 56.203125 25.203125 
L 14.890625 25.203125 
Q 15.484375 15.921875 20.484375 11.0625 
Q 25.484375 6.203125 34.421875 6.203125 
Q 39.59375 6.203125 44.453125 7.46875 
Q 49.3125 8.734375 54.109375 11.28125 
L 54.109375 2.78125 
Q 49.265625 0.734375 44.1875 -0.34375 
Q 39.109375 -1.421875 33.890625 -1.421875 
Q 20.796875 -1.421875 13.15625 6.1875 
Q 5.515625 13.8125 5.515625 26.8125 
Q 5.515625 40.234375 12.765625 48.109375 
Q 20.015625 56 32.328125 56 
Q 43.359375 56 49.78125 48.890625 
Q 56.203125 41.796875 56.203125 29.59375 
z
M 47.21875 32.234375 
Q 47.125 39.59375 43.09375 43.984375 
Q 39.0625 48.390625 32.421875 48.390625 
Q 24.90625 48.390625 20.390625 44.140625 
Q 15.875 39.890625 15.1875 32.171875 
z
" id="DejaVuSans-101"/>
      <path d="M 41.109375 46.296875 
Q 39.59375 47.171875 37.8125 47.578125 
Q 36.03125 48 33.890625 48 
Q 26.265625 48 22.1875 43.046875 
Q 18.109375 38.09375 18.109375 28.8125 
L 18.109375 0 
L 9.078125 0 
L 9.078125 54.6875 
L 18.109375 54.6875 
L 18.109375 46.1875 
Q 20.953125 51.171875 25.484375 53.578125 
Q 30.03125 56 36.53125 56 
Q 37.453125 56 38.578125 55.875 
Q 39.703125 55.765625 41.0625 55.515625 
z
" id="DejaVuSans-114"/>
      <path id="DejaVuSans-32"/>
      <path d="M 30.609375 48.390625 
Q 23.390625 48.390625 19.1875 42.75 
Q 14.984375 37.109375 14.984375 27.296875 
Q 14.984375 17.484375 19.15625 11.84375 
Q 23.34375 6.203125 30.609375 6.203125 
Q 37.796875 6.203125 41.984375 11.859375 
Q 46.1875 17.53125 46.1875 27.296875 
Q 46.1875 37.015625 41.984375 42.703125 
Q 37.796875 48.390625 30.609375 48.390625 
z
M 30.609375 56 
Q 42.328125 56 49.015625 48.375 
Q 55.71875 40.765625 55.71875 27.296875 
Q 55.71875 13.875 49.015625 6.21875 
Q 42.328125 -1.421875 30.609375 -1.421875 
Q 18.84375 -1.421875 12.171875 6.21875 
Q 5.515625 13.875 5.515625 27.296875 
Q 5.515625 40.765625 12.171875 48.375 
Q 18.84375 56 30.609375 56 
z
" id="DejaVuSans-111"/>
      <path d="M 37.109375 75.984375 
L 37.109375 68.5 
L 28.515625 68.5 
Q 23.6875 68.5 21.796875 66.546875 
Q 19.921875 64.59375 19.921875 59.515625 
L 19.921875 54.6875 
L 34.71875 54.6875 
L 34.71875 47.703125 
L 19.921875 47.703125 
L 19.921875 0 
L 10.890625 0 
L 10.890625 47.703125 
L 2.296875 47.703125 
L 2.296875 54.6875 
L 10.890625 54.6875 
L 10.890625 58.5 
Q 10.890625 67.625 15.140625 71.796875 
Q 19.390625 75.984375 28.609375 75.984375 
z
" id="DejaVuSans-102"/>
      <path d="M 9.421875 54.6875 
L 18.40625 54.6875 
L 18.40625 -0.984375 
Q 18.40625 -11.421875 14.421875 -16.109375 
Q 10.453125 -20.796875 1.609375 -20.796875 
L -1.8125 -20.796875 
L -1.8125 -13.1875 
L 0.59375 -13.1875 
Q 5.71875 -13.1875 7.5625 -10.8125 
Q 9.421875 -8.453125 9.421875 -0.984375 
z
M 9.421875 75.984375 
L 18.40625 75.984375 
L 18.40625 64.59375 
L 9.421875 64.59375 
z
" id="DejaVuSans-106"/>
      <path d="M 44.28125 53.078125 
L 44.28125 44.578125 
Q 40.484375 46.53125 36.375 47.5 
Q 32.28125 48.484375 27.875 48.484375 
Q 21.1875 48.484375 17.84375 46.4375 
Q 14.5 44.390625 14.5 40.28125 
Q 14.5 37.15625 16.890625 35.375 
Q 19.28125 33.59375 26.515625 31.984375 
L 29.59375 31.296875 
Q 39.15625 29.25 43.1875 25.515625 
Q 47.21875 21.78125 47.21875 15.09375 
Q 47.21875 7.46875 41.1875 3.015625 
Q 35.15625 -1.421875 24.609375 -1.421875 
Q 20.21875 -1.421875 15.453125 -0.5625 
Q 10.6875 0.296875 5.421875 2 
L 5.421875 11.28125 
Q 10.40625 8.6875 15.234375 7.390625 
Q 20.0625 6.109375 24.8125 6.109375 
Q 31.15625 6.109375 34.5625 8.28125 
Q 37.984375 10.453125 37.984375 14.40625 
Q 37.984375 18.0625 35.515625 20.015625 
Q 33.0625 21.96875 24.703125 23.78125 
L 21.578125 24.515625 
Q 13.234375 26.265625 9.515625 29.90625 
Q 5.8125 33.546875 5.8125 39.890625 
Q 5.8125 47.609375 11.28125 51.796875 
Q 16.75 56 26.8125 56 
Q 31.78125 56 36.171875 55.265625 
Q 40.578125 54.546875 44.28125 53.078125 
z
" id="DejaVuSans-115"/>
     </defs>
     <g transform="translate(209.940937 335.860562)scale(0.1 -0.1)">
      <use xlink:href="#DejaVuSans-110"/>
      <use x="63.378906" xlink:href="#DejaVuSans-117"/>
      <use x="126.757812" xlink:href="#DejaVuSans-109"/>
      <use x="224.169922" xlink:href="#DejaVuSans-98"/>
      <use x="287.646484" xlink:href="#DejaVuSans-101"/>
      <use x="349.169922" xlink:href="#DejaVuSans-114"/>
      <use x="390.283203" xlink:href="#DejaVuSans-32"/>
      <use x="422.070312" xlink:href="#DejaVuSans-111"/>
      <use x="483.251953" xlink:href="#DejaVuSans-102"/>
      <use x="518.457031" xlink:href="#DejaVuSans-32"/>
      <use x="550.244141" xlink:href="#DejaVuSans-106"/>
      <use x="578.027344" xlink:href="#DejaVuSans-111"/>
      <use x="639.208984" xlink:href="#DejaVuSans-98"/>
      <use x="702.685547" xlink:href="#DejaVuSans-115"/>
     </g>
    </g>
   </g>
   <g id="matplotlib.axis_2">
    <g id="ytick_1">
     <g id="line2d_13">
      <path clip-path="url(#p1c2eb5b350)" d="M 57.6 295.086956 
L 437.76 295.086956 
" style="fill:none;stroke:#b0b0b0;stroke-linecap:square;stroke-width:0.8;"/>
     </g>
     <g id="line2d_14">
      <defs>
       <path d="M 0 0 
L -3.5 0 
" id="mf88c797c88" style="stroke:#000000;stroke-width:0.8;"/>
      </defs>
      <g>
       <use style="stroke:#000000;stroke-width:0.8;" x="57.6" xlink:href="#mf88c797c88" y="295.086956"/>
      </g>
     </g>
     <g id="text_8">
      <!-- 500 -->
      <g transform="translate(31.5125 298.886175)scale(0.1 -0.1)">
       <use xlink:href="#DejaVuSans-53"/>
       <use x="63.623047" xlink:href="#DejaVuSans-48"/>
       <use x="127.246094" xlink:href="#DejaVuSans-48"/>
      </g>
     </g>
    </g>
    <g id="ytick_2">
     <g id="line2d_15">
      <path clip-path="url(#p1c2eb5b350)" d="M 57.6 245.772291 
L 437.76 245.772291 
" style="fill:none;stroke:#b0b0b0;stroke-linecap:square;stroke-width:0.8;"/>
     </g>
     <g id="line2d_16">
      <g>
       <use style="stroke:#000000;stroke-width:0.8;" x="57.6" xlink:href="#mf88c797c88" y="245.772291"/>
      </g>
     </g>
     <g id="text_9">
      <!-- 1000 -->
      <g transform="translate(25.15 249.57151)scale(0.1 -0.1)">
       <use xlink:href="#DejaVuSans-49"/>
       <use x="63.623047" xlink:href="#DejaVuSans-48"/>
       <use x="127.246094" xlink:href="#DejaVuSans-48"/>
       <use x="190.869141" xlink:href="#DejaVuSans-48"/>
      </g>
     </g>
    </g>
    <g id="ytick_3">
     <g id="line2d_17">
      <path clip-path="url(#p1c2eb5b350)" d="M 57.6 196.457626 
L 437.76 196.457626 
" style="fill:none;stroke:#b0b0b0;stroke-linecap:square;stroke-width:0.8;"/>
     </g>
     <g id="line2d_18">
      <g>
       <use style="stroke:#000000;stroke-width:0.8;" x="57.6" xlink:href="#mf88c797c88" y="196.457626"/>
      </g>
     </g>
     <g id="text_10">
      <!-- 1500 -->
      <g transform="translate(25.15 200.256845)scale(0.1 -0.1)">
       <use xlink:href="#DejaVuSans-49"/>
       <use x="63.623047" xlink:href="#DejaVuSans-53"/>
       <use x="127.246094" xlink:href="#DejaVuSans-48"/>
       <use x="190.869141" xlink:href="#DejaVuSans-48"/>
      </g>
     </g>
    </g>
    <g id="ytick_4">
     <g id="line2d_19">
      <path clip-path="url(#p1c2eb5b350)" d="M 57.6 147.142961 
L 437.76 147.142961 
" style="fill:none;stroke:#b0b0b0;stroke-linecap:square;stroke-width:0.8;"/>
     </g>
     <g id="line2d_20">
      <g>
       <use style="stroke:#000000;stroke-width:0.8;" x="57.6" xlink:href="#mf88c797c88" y="147.142961"/>
      </g>
     </g>
     <g id="text_11">
      <!-- 2000 -->
      <g transform="translate(25.15 150.94218)scale(0.1 -0.1)">
       <use xlink:href="#DejaVuSans-50"/>
       <use x="63.623047" xlink:href="#DejaVuSans-48"/>
       <use x="127.246094" xlink:href="#DejaVuSans-48"/>
       <use x="190.869141" xlink:href="#DejaVuSans-48"/>
      </g>
     </g>
    </g>
    <g id="ytick_5">
     <g id="line2d_21">
      <path clip-path="url(#p1c2eb5b350)" d="M 57.6 97.828296 
L 437.76 97.828296 
" style="fill:none;stroke:#b0b0b0;stroke-linecap:square;stroke-width:0.8;"/>
     </g>
     <g id="line2d_22">
      <g>
       <use style="stroke:#000000;stroke-width:0.8;" x="57.6" xlink:href="#mf88c797c88" y="97.828296"/>
      </g>
     </g>
     <g id="text_12">
      <!-- 2500 -->
      <g transform="translate(25.15 101.627515)scale(0.1 -0.1)">
       <use xlink:href="#DejaVuSans-50"/>
       <use x="63.623047" xlink:href="#DejaVuSans-53"/>
       <use x="127.246094" xlink:href="#DejaVuSans-48"/>
       <use x="190.869141" xlink:href="#DejaVuSans-48"/>
      </g>
     </g>
    </g>
    <g id="ytick_6">
     <g id="line2d_23">
      <path clip-path="url(#p1c2eb5b350)" d="M 57.6 48.513631 
L 437.76 48.513631 
" style="fill:none;stroke:#b0b0b0;stroke-linecap:square;stroke-width:0.8;"/>
     </g>
     <g id="line2d_24">
      <g>
       <use style="stroke:#000000;stroke-width:0.8;" x="57.6" xlink:href="#mf88c797c88" y="48.513631"/>
      </g>
     </g>
     <g id="text_13">
      <!-- 3000 -->
      <g transform="translate(25.15 52.31285)scale(0.1 -0.1)">
       <use xlink:href="#DejaVuSans-51"/>
       <use x="63.623047" xlink:href="#DejaVuSans-48"/>
       <use x="127.246094" xlink:href="#DejaVuSans-48"/>
       <use x="190.869141" xlink:href="#DejaVuSans-48"/>
      </g>
     </g>
    </g>
    <g id="text_14">
     <!-- MB/s -->
     <defs>
      <path d="M 9.8125 72.90625 
L 24.515625 72.90625 
L 43.109375 23.296875 
L 61.8125 72.90625 
L 76.515625 72.90625 
L 76.515625 0 
L 66.890625 0 
L 66.890625 64.015625 
L 48.09375 14.015625 
L 38.1875 14.015625 
L 19.390625 64.015625 
L 19.390625 0 
L 9.8125 0 
z
" id="DejaVuSans-77"/>
      <path d="M 19.671875 34.8125 
L 19.671875 8.109375 
L 35.5 8.109375 
Q 43.453125 8.109375 47.28125 11.40625 
Q 51.125 14.703125 51.125 21.484375 
Q 51.125 28.328125 47.28125 31.5625 
Q 43.453125 34.8125 35.5 34.8125 
z
M 19.671875 64.796875 
L 19.671875 42.828125 
L 34.28125 42.828125 
Q 41.5 42.828125 45.03125 45.53125 
Q 48.578125 48.25 48.578125 53.8125 
Q 48.578125 59.328125 45.03125 62.0625 
Q 41.5 64.796875 34.28125 64.796875 
z
M 9.8125 72.90625 
L 35.015625 72.90625 
Q 46.296875 72.90625 52.390625 68.21875 
Q 58.5 63.53125 58.5 54.890625 
Q 58.5 48.1875 55.375 44.234375 
Q 52.25 40.28125 46.1875 39.3125 
Q 53.46875 37.75 57.5 32.78125 
Q 61.53125 27.828125 61.53125 20.40625 
Q 61.53125 10.640625 54.890625 5.3125 
Q 48.25 0 35.984375 0 
L 9.8125 0 
z
" id="DejaVuSans-66"/>
      <path d="M 25.390625 72.90625 
L 33.6875 72.90625 
L 8.296875 -9.28125 
L 0 -9.28125 
z
" id="DejaVuSans-47"/>
     </defs>
     <g transform="translate(19.070312 174.465594)rotate(-90)scale(0.1 -0.1)">
      <use xlink:href="#DejaVuSans-77"/>
      <use x="86.279297" xlink:href="#DejaVuSans-66"/>
      <use x="154.882812" xlink:href="#DejaVuSans-47"/>
      <use x="188.574219" xlink:href="#DejaVuSans-115"/>
     </g>
    </g>
   </g>
   <g id="line2d_25">
    <path clip-path="url(#p1c2eb5b350)" d="M 57.6 212.687063 
L 63.634286 134.247369 
L 69.668571 55.36076 
L 75.702857 78.908994 
L 81.737143 131.407634 
L 87.771429 143.368559 
L 93.805714 103.417805 
L 99.84 123.388992 
L 105.874286 131.213457 
L 111.908571 103.746634 
L 117.942857 140.675998 
L 123.977143 133.959957 
L 130.011429 143.170433 
L 136.045714 147.407257 
L 142.08 151.702641 
L 148.114286 153.968708 
L 154.148571 158.443243 
L 160.182857 161.196099 
L 166.217143 166.214733 
L 172.251429 171.673347 
L 178.285714 175.355765 
L 184.32 176.732434 
L 190.354286 183.44077 
L 196.388571 187.783253 
L 202.422857 191.108237 
L 208.457143 195.552528 
L 214.491429 198.220625 
L 220.525714 202.892997 
L 226.56 205.01112 
L 232.594286 208.26897 
L 238.628571 209.856767 
L 244.662857 212.80746 
L 250.697143 215.093368 
L 256.731429 216.828435 
L 262.765714 219.408979 
L 268.8 219.348781 
L 274.834286 220.258598 
L 280.868571 222.849062 
L 286.902857 223.106616 
L 292.937143 224.606957 
L 298.971429 223.262843 
L 305.005714 223.959317 
L 311.04 224.867015 
L 317.074286 224.937712 
L 323.108571 224.887627 
L 329.142857 224.933089 
L 335.177143 225.72405 
L 341.211429 225.550196 
L 347.245714 225.722894 
L 353.28 225.950107 
L 359.314286 226.535719 
L 365.348571 225.594695 
L 371.382857 226.049314 
L 377.417143 226.882366 
L 383.451429 225.509165 
L 389.485714 226.903075 
L 395.52 226.445758 
L 401.554286 226.457124 
L 407.588571 227.171897 
L 413.622857 227.137319 
L 419.657143 226.849329 
L 425.691429 227.836201 
L 431.725714 226.587153 
L 437.76 227.358754 
" style="fill:none;stroke:#1f77b4;stroke-linecap:square;"/>
   </g>
   <g id="line2d_26">
    <path clip-path="url(#p1c2eb5b350)" d="M 57.6 217.418574 
L 63.634286 70.52685 
L 69.668571 54.636162 
L 75.702857 67.641749 
L 81.737143 107.824436 
L 87.771429 102.889021 
L 93.805714 105.923317 
L 99.84 135.426779 
L 105.874286 146.579599 
L 111.908571 137.684659 
L 117.942857 139.538197 
L 123.977143 137.015154 
L 130.011429 143.752096 
L 136.045714 142.842953 
L 142.08 150.877295 
L 148.114286 148.048925 
L 154.148571 157.736175 
L 160.182857 152.585874 
L 166.217143 163.376925 
L 172.251429 166.368938 
L 178.285714 170.987276 
L 184.32 173.374414 
L 190.354286 179.540095 
L 196.388571 185.518632 
L 202.422857 189.125344 
L 208.457143 193.291856 
L 214.491429 197.078875 
L 220.525714 199.130153 
L 226.56 201.677853 
L 232.594286 205.707689 
L 238.628571 208.189508 
L 244.662857 209.803696 
L 250.697143 213.834785 
L 256.731429 214.910461 
L 262.765714 216.991501 
L 268.8 217.92116 
L 274.834286 218.463525 
L 280.868571 220.844017 
L 286.902857 221.487419 
L 292.937143 221.545595 
L 298.971429 222.274046 
L 305.005714 221.86354 
L 311.04 220.958153 
L 317.074286 221.256642 
L 323.108571 223.22605 
L 329.142857 223.26554 
L 335.177143 223.790183 
L 341.211429 223.539564 
L 347.245714 222.932474 
L 353.28 223.641661 
L 359.314286 223.75599 
L 365.348571 224.414707 
L 371.382857 224.411047 
L 377.417143 223.784982 
L 383.451429 224.24644 
L 389.485714 225.530547 
L 395.52 224.383307 
L 401.554286 224.394095 
L 407.588571 224.597807 
L 413.622857 224.303749 
L 419.657143 224.826658 
L 425.691429 224.37146 
L 431.725714 225.346677 
L 437.76 224.263488 
" style="fill:none;stroke:#ff7f0e;stroke-linecap:square;"/>
   </g>
   <g id="line2d_27">
    <path clip-path="url(#p1c2eb5b350)" d="M 57.6 225.386552 
L 63.634286 113.522014 
L 69.668571 48.113335 
L 75.702857 41.403554 
L 81.737143 113.408166 
L 87.771429 117.475567 
L 93.805714 130.190852 
L 99.84 141.346561 
L 105.874286 168.854705 
L 111.908571 161.962307 
L 117.942857 179.627552 
L 123.977143 188.488973 
L 130.011429 199.423922 
L 136.045714 215.853507 
L 142.08 226.987931 
L 148.114286 233.191465 
L 154.148571 241.432408 
L 160.182857 247.567268 
L 166.217143 251.859281 
L 172.251429 257.400439 
L 178.285714 259.919435 
L 184.32 264.69506 
L 190.354286 268.88854 
L 196.388571 271.251021 
L 202.422857 273.684969 
L 208.457143 276.111501 
L 214.491429 278.407426 
L 220.525714 280.095298 
L 226.56 282.140412 
L 232.594286 283.596061 
L 238.628571 284.582258 
L 244.662857 286.082792 
L 250.697143 287.774419 
L 256.731429 288.325549 
L 262.765714 289.794876 
L 268.8 289.33101 
L 274.834286 291.101137 
L 280.868571 290.018044 
L 286.902857 291.957786 
L 292.937143 291.876976 
L 298.971429 292.197425 
L 305.005714 292.492735 
L 311.04 292.489942 
L 317.074286 292.152541 
L 323.108571 292.475687 
L 329.142857 293.313362 
L 335.177143 293.524586 
L 341.211429 293.61368 
L 347.245714 293.163491 
L 353.28 293.114177 
L 359.314286 293.425476 
L 365.348571 292.932522 
L 371.382857 293.860928 
L 377.417143 293.241894 
L 383.451429 293.193446 
L 389.485714 293.47845 
L 395.52 293.918333 
L 401.554286 293.390609 
L 407.588571 292.918267 
L 413.622857 293.421334 
L 419.657143 292.529047 
L 425.691429 293.720304 
L 431.725714 293.820763 
L 437.76 292.199062 
" style="fill:none;stroke:#2ca02c;stroke-linecap:square;"/>
   </g>
   <g id="line2d_28">
    <path clip-path="url(#p1c2eb5b350)" d="M 57.6 215.672623 
L 63.634286 79.305534 
L 69.668571 30.475636 
L 75.702857 86.795199 
L 81.737143 94.924028 
L 87.771429 66.116847 
L 93.805714 88.765474 
L 99.84 108.432201 
L 105.874286 68.837437 
L 111.908571 122.177604 
L 117.942857 147.35486 
L 123.977143 167.218075 
L 130.011429 181.754536 
L 136.045714 193.588418 
L 142.08 199.16059 
L 148.114286 213.879283 
L 154.148571 224.972675 
L 160.182857 231.338987 
L 166.217143 238.545188 
L 172.251429 243.305883 
L 178.285714 249.005676 
L 184.32 254.743418 
L 190.354286 258.704677 
L 196.388571 261.943937 
L 202.422857 265.630112 
L 208.457143 267.833958 
L 214.491429 270.931631 
L 220.525714 273.023459 
L 226.56 275.476093 
L 232.594286 277.984784 
L 238.628571 278.418021 
L 244.662857 280.710286 
L 250.697143 281.978694 
L 256.731429 283.928261 
L 262.765714 284.293305 
L 268.8 286.052163 
L 274.834286 286.506686 
L 280.868571 286.739293 
L 286.902857 286.717622 
L 292.937143 287.744368 
L 298.971429 287.93344 
L 305.005714 288.409731 
L 311.04 288.400003 
L 317.074286 289.046198 
L 323.108571 289.070952 
L 329.142857 289.222941 
L 335.177143 289.425883 
L 341.211429 289.587697 
L 347.245714 289.028861 
L 353.28 290.134877 
L 359.314286 290.440108 
L 365.348571 290.566959 
L 371.382857 290.179762 
L 377.417143 288.976175 
L 383.451429 289.918066 
L 389.485714 289.744598 
L 395.52 289.839953 
L 401.554286 290.90985 
L 407.588571 290.310754 
L 413.622857 289.43407 
L 419.657143 288.324875 
L 425.691429 291.057119 
L 431.725714 289.342086 
L 437.76 290.553571 
" style="fill:none;stroke:#d62728;stroke-linecap:square;"/>
   </g>
   <g id="line2d_29">
    <path clip-path="url(#p1c2eb5b350)" d="M 57.6 227.32745 
L 63.634286 114.78811 
L 69.668571 132.496794 
L 75.702857 114.565327 
L 81.737143 97.370209 
L 87.771429 53.173 
L 93.805714 152.64222 
L 99.84 158.903834 
L 105.874286 162.351141 
L 111.908571 175.137509 
L 117.942857 186.103473 
L 123.977143 198.39053 
L 130.011429 195.685447 
L 136.045714 220.032829 
L 142.08 227.11035 
L 148.114286 236.703594 
L 154.148571 244.436075 
L 160.182857 249.878122 
L 166.217143 255.87467 
L 172.251429 259.423592 
L 178.285714 264.143545 
L 184.32 266.206188 
L 190.354286 270.217724 
L 196.388571 273.028371 
L 202.422857 275.319962 
L 208.457143 277.686199 
L 214.491429 279.642508 
L 220.525714 281.507701 
L 226.56 282.877435 
L 232.594286 284.47496 
L 238.628571 286.141353 
L 244.662857 287.530736 
L 250.697143 288.187815 
L 256.731429 289.237774 
L 262.765714 289.381577 
L 268.8 290.470737 
L 274.834286 291.275086 
L 280.868571 291.316985 
L 286.902857 292.329091 
L 292.937143 292.352689 
L 298.971429 292.70656 
L 305.005714 291.944591 
L 311.04 292.760305 
L 317.074286 292.990505 
L 323.108571 292.943405 
L 329.142857 292.985882 
L 335.177143 294.06647 
L 341.211429 293.837619 
L 347.245714 293.646525 
L 353.28 292.432247 
L 359.314286 293.590949 
L 365.348571 293.87788 
L 371.382857 294.388364 
L 377.417143 293.38743 
L 383.451429 294.002804 
L 389.485714 294.374879 
L 395.52 293.171678 
L 401.554286 293.661165 
L 407.588571 293.657505 
L 413.622857 294.043546 
L 419.657143 292.839382 
L 425.691429 292.51903 
L 431.725714 291.573286 
L 437.76 293.95792 
" style="fill:none;stroke:#9467bd;stroke-linecap:square;"/>
   </g>
   <g id="patch_3">
    <path d="M 57.6 307.584 
L 57.6 17.28 
" style="fill:none;stroke:#000000;stroke-linecap:square;stroke-linejoin:miter;stroke-width:0.8;"/>
   </g>
   <g id="patch_4">
    <path d="M 437.76 307.584 
L 437.76 17.28 
" style="fill:none;stroke:#000000;stroke-linecap:square;stroke-linejoin:miter;stroke-width:0.8;"/>
   </g>
   <g id="patch_5">
    <path d="M 57.6 307.584 
L 437.76 307.584 
" style="fill:none;stroke:#000000;stroke-linecap:square;stroke-linejoin:miter;stroke-width:0.8;"/>
   </g>
   <g id="patch_6">
    <path d="M 57.6 17.28 
L 437.76 17.28 
" style="fill:none;stroke:#000000;stroke-linecap:square;stroke-linejoin:miter;stroke-width:0.8;"/>
   </g>
   <g id="text_15">
    <!-- Write Bandwidth -->
    <defs>
     <path d="M 3.328125 72.90625 
L 13.28125 72.90625 
L 28.609375 11.28125 
L 43.890625 72.90625 
L 54.984375 72.90625 
L 70.3125 11.28125 
L 85.59375 72.90625 
L 95.609375 72.90625 
L 77.296875 0 
L 64.890625 0 
L 49.515625 63.28125 
L 33.984375 0 
L 21.578125 0 
z
" id="DejaVuSans-87"/>
     <path d="M 9.421875 54.6875 
L 18.40625 54.6875 
L 18.40625 0 
L 9.421875 0 
z
M 9.421875 75.984375 
L 18.40625 75.984375 
L 18.40625 64.59375 
L 9.421875 64.59375 
z
" id="DejaVuSans-105"/>
     <path d="M 18.3125 70.21875 
L 18.3125 54.6875 
L 36.8125 54.6875 
L 36.8125 47.703125 
L 18.3125 47.703125 
L 18.3125 18.015625 
Q 18.3125 11.328125 20.140625 9.421875 
Q 21.96875 7.515625 27.59375 7.515625 
L 36.8125 7.515625 
L 36.8125 0 
L 27.59375 0 
Q 17.1875 0 13.234375 3.875 
Q 9.28125 7.765625 9.28125 18.015625 
L 9.28125 47.703125 
L 2.6875 47.703125 
L 2.6875 54.6875 
L 9.28125 54.6875 
L 9.28125 70.21875 
z
" id="DejaVuSans-116"/>
     <path d="M 34.28125 27.484375 
Q 23.390625 27.484375 19.1875 25 
Q 14.984375 22.515625 14.984375 16.5 
Q 14.984375 11.71875 18.140625 8.90625 
Q 21.296875 6.109375 26.703125 6.109375 
Q 34.1875 6.109375 38.703125 11.40625 
Q 43.21875 16.703125 43.21875 25.484375 
L 43.21875 27.484375 
z
M 52.203125 31.203125 
L 52.203125 0 
L 43.21875 0 
L 43.21875 8.296875 
Q 40.140625 3.328125 35.546875 0.953125 
Q 30.953125 -1.421875 24.3125 -1.421875 
Q 15.921875 -1.421875 10.953125 3.296875 
Q 6 8.015625 6 15.921875 
Q 6 25.140625 12.171875 29.828125 
Q 18.359375 34.515625 30.609375 34.515625 
L 43.21875 34.515625 
L 43.21875 35.40625 
Q 43.21875 41.609375 39.140625 45 
Q 35.0625 48.390625 27.6875 48.390625 
Q 23 48.390625 18.546875 47.265625 
Q 14.109375 46.140625 10.015625 43.890625 
L 10.015625 52.203125 
Q 14.9375 54.109375 19.578125 55.046875 
Q 24.21875 56 28.609375 56 
Q 40.484375 56 46.34375 49.84375 
Q 52.203125 43.703125 52.203125 31.203125 
z
" id="DejaVuSans-97"/>
     <path d="M 45.40625 46.390625 
L 45.40625 75.984375 
L 54.390625 75.984375 
L 54.390625 0 
L 45.40625 0 
L 45.40625 8.203125 
Q 42.578125 3.328125 38.25 0.953125 
Q 33.9375 -1.421875 27.875 -1.421875 
Q 17.96875 -1.421875 11.734375 6.484375 
Q 5.515625 14.40625 5.515625 27.296875 
Q 5.515625 40.1875 11.734375 48.09375 
Q 17.96875 56 27.875 56 
Q 33.9375 56 38.25 53.625 
Q 42.578125 51.265625 45.40625 46.390625 
z
M 14.796875 27.296875 
Q 14.796875 17.390625 18.875 11.75 
Q 22.953125 6.109375 30.078125 6.109375 
Q 37.203125 6.109375 41.296875 11.75 
Q 45.40625 17.390625 45.40625 27.296875 
Q 45.40625 37.203125 41.296875 42.84375 
Q 37.203125 48.484375 30.078125 48.484375 
Q 22.953125 48.484375 18.875 42.84375 
Q 14.796875 37.203125 14.796875 27.296875 
z
" id="DejaVuSans-100"/>
     <path d="M 4.203125 54.6875 
L 13.1875 54.6875 
L 24.421875 12.015625 
L 35.59375 54.6875 
L 46.1875 54.6875 
L 57.421875 12.015625 
L 68.609375 54.6875 
L 77.59375 54.6875 
L 63.28125 0 
L 52.6875 0 
L 40.921875 44.828125 
L 29.109375 0 
L 18.5 0 
z
" id="DejaVuSans-119"/>
     <path d="M 54.890625 33.015625 
L 54.890625 0 
L 45.90625 0 
L 45.90625 32.71875 
Q 45.90625 40.484375 42.875 44.328125 
Q 39.84375 48.1875 33.796875 48.1875 
Q 26.515625 48.1875 22.3125 43.546875 
Q 18.109375 38.921875 18.109375 30.90625 
L 18.109375 0 
L 9.078125 0 
L 9.078125 75.984375 
L 18.109375 75.984375 
L 18.109375 46.1875 
Q 21.34375 51.125 25.703125 53.5625 
Q 30.078125 56 35.796875 56 
Q 45.21875 56 50.046875 50.171875 
Q 54.890625 44.34375 54.890625 33.015625 
z
" id="DejaVuSans-104"/>
    </defs>
    <g transform="translate(197.724375 11.28)scale(0.12 -0.12)">
     <use xlink:href="#DejaVuSans-87"/>
     <use x="98.814453" xlink:href="#DejaVuSans-114"/>
     <use x="139.927734" xlink:href="#DejaVuSans-105"/>
     <use x="167.710938" xlink:href="#DejaVuSans-116"/>
     <use x="206.919922" xlink:href="#DejaVuSans-101"/>
     <use x="268.443359" xlink:href="#DejaVuSans-32"/>
     <use x="300.230469" xlink:href="#DejaVuSans-66"/>
     <use x="368.833984" xlink:href="#DejaVuSans-97"/>
     <use x="430.113281" xlink:href="#DejaVuSans-110"/>
     <use x="493.492188" xlink:href="#DejaVuSans-100"/>
     <use x="556.96875" xlink:href="#DejaVuSans-119"/>
     <use x="638.755859" xlink:href="#DejaVuSans-105"/>
     <use x="666.539062" xlink:href="#DejaVuSans-100"/>
     <use x="730.015625" xlink:href="#DejaVuSans-116"/>
     <use x="769.224609" xlink:href="#DejaVuSans-104"/>
    </g>
   </g>
   <g id="legend_1">
    <g id="patch_7">
     <path d="M 288.469375 98.670625 
L 430.76 98.670625 
Q 432.76 98.670625 432.76 96.670625 
L 432.76 24.28 
Q 432.76 22.28 430.76 22.28 
L 288.469375 22.28 
Q 286.469375 22.28 286.469375 24.28 
L 286.469375 96.670625 
Q 286.469375 98.670625 288.469375 98.670625 
z
" style="fill:#ffffff;opacity:0.8;stroke:#cccccc;stroke-linejoin:miter;"/>
    </g>
    <g id="line2d_30">
     <path d="M 290.469375 30.378438 
L 310.469375 30.378438 
" style="fill:none;stroke:#1f77b4;stroke-linecap:square;"/>
    </g>
    <g id="line2d_31"/>
    <g id="text_16">
     <!-- nvme dual numa -->
     <defs>
      <path d="M 2.984375 54.6875 
L 12.5 54.6875 
L 29.59375 8.796875 
L 46.6875 54.6875 
L 56.203125 54.6875 
L 35.6875 0 
L 23.484375 0 
z
" id="DejaVuSans-118"/>
      <path d="M 9.421875 75.984375 
L 18.40625 75.984375 
L 18.40625 0 
L 9.421875 0 
z
" id="DejaVuSans-108"/>
     </defs>
     <g transform="translate(318.469375 33.878438)scale(0.1 -0.1)">
      <use xlink:href="#DejaVuSans-110"/>
      <use x="63.378906" xlink:href="#DejaVuSans-118"/>
      <use x="122.558594" xlink:href="#DejaVuSans-109"/>
      <use x="219.970703" xlink:href="#DejaVuSans-101"/>
      <use x="281.494141" xlink:href="#DejaVuSans-32"/>
      <use x="313.28125" xlink:href="#DejaVuSans-100"/>
      <use x="376.757812" xlink:href="#DejaVuSans-117"/>
      <use x="440.136719" xlink:href="#DejaVuSans-97"/>
      <use x="501.416016" xlink:href="#DejaVuSans-108"/>
      <use x="529.199219" xlink:href="#DejaVuSans-32"/>
      <use x="560.986328" xlink:href="#DejaVuSans-110"/>
      <use x="624.365234" xlink:href="#DejaVuSans-117"/>
      <use x="687.744141" xlink:href="#DejaVuSans-109"/>
      <use x="785.15625" xlink:href="#DejaVuSans-97"/>
     </g>
    </g>
    <g id="line2d_32">
     <path d="M 290.469375 45.056563 
L 310.469375 45.056563 
" style="fill:none;stroke:#ff7f0e;stroke-linecap:square;"/>
    </g>
    <g id="line2d_33"/>
    <g id="text_17">
     <!-- nvme dual rr -->
     <g transform="translate(318.469375 48.556563)scale(0.1 -0.1)">
      <use xlink:href="#DejaVuSans-110"/>
      <use x="63.378906" xlink:href="#DejaVuSans-118"/>
      <use x="122.558594" xlink:href="#DejaVuSans-109"/>
      <use x="219.970703" xlink:href="#DejaVuSans-101"/>
      <use x="281.494141" xlink:href="#DejaVuSans-32"/>
      <use x="313.28125" xlink:href="#DejaVuSans-100"/>
      <use x="376.757812" xlink:href="#DejaVuSans-117"/>
      <use x="440.136719" xlink:href="#DejaVuSans-97"/>
      <use x="501.416016" xlink:href="#DejaVuSans-108"/>
      <use x="529.199219" xlink:href="#DejaVuSans-32"/>
      <use x="560.986328" xlink:href="#DejaVuSans-114"/>
      <use x="602.083984" xlink:href="#DejaVuSans-114"/>
     </g>
    </g>
    <g id="line2d_34">
     <path d="M 290.469375 59.734688 
L 310.469375 59.734688 
" style="fill:none;stroke:#2ca02c;stroke-linecap:square;"/>
    </g>
    <g id="line2d_35"/>
    <g id="text_18">
     <!-- rnbd dual min-inflight -->
     <defs>
      <path d="M 4.890625 31.390625 
L 31.203125 31.390625 
L 31.203125 23.390625 
L 4.890625 23.390625 
z
" id="DejaVuSans-45"/>
      <path d="M 45.40625 27.984375 
Q 45.40625 37.75 41.375 43.109375 
Q 37.359375 48.484375 30.078125 48.484375 
Q 22.859375 48.484375 18.828125 43.109375 
Q 14.796875 37.75 14.796875 27.984375 
Q 14.796875 18.265625 18.828125 12.890625 
Q 22.859375 7.515625 30.078125 7.515625 
Q 37.359375 7.515625 41.375 12.890625 
Q 45.40625 18.265625 45.40625 27.984375 
z
M 54.390625 6.78125 
Q 54.390625 -7.171875 48.1875 -13.984375 
Q 42 -20.796875 29.203125 -20.796875 
Q 24.46875 -20.796875 20.265625 -20.09375 
Q 16.0625 -19.390625 12.109375 -17.921875 
L 12.109375 -9.1875 
Q 16.0625 -11.328125 19.921875 -12.34375 
Q 23.78125 -13.375 27.78125 -13.375 
Q 36.625 -13.375 41.015625 -8.765625 
Q 45.40625 -4.15625 45.40625 5.171875 
L 45.40625 9.625 
Q 42.625 4.78125 38.28125 2.390625 
Q 33.9375 0 27.875 0 
Q 17.828125 0 11.671875 7.65625 
Q 5.515625 15.328125 5.515625 27.984375 
Q 5.515625 40.671875 11.671875 48.328125 
Q 17.828125 56 27.875 56 
Q 33.9375 56 38.28125 53.609375 
Q 42.625 51.21875 45.40625 46.390625 
L 45.40625 54.6875 
L 54.390625 54.6875 
z
" id="DejaVuSans-103"/>
     </defs>
     <g transform="translate(318.469375 63.234688)scale(0.1 -0.1)">
      <use xlink:href="#DejaVuSans-114"/>
      <use x="41.097656" xlink:href="#DejaVuSans-110"/>
      <use x="104.476562" xlink:href="#DejaVuSans-98"/>
      <use x="167.953125" xlink:href="#DejaVuSans-100"/>
      <use x="231.429688" xlink:href="#DejaVuSans-32"/>
      <use x="263.216797" xlink:href="#DejaVuSans-100"/>
      <use x="326.693359" xlink:href="#DejaVuSans-117"/>
      <use x="390.072266" xlink:href="#DejaVuSans-97"/>
      <use x="451.351562" xlink:href="#DejaVuSans-108"/>
      <use x="479.134766" xlink:href="#DejaVuSans-32"/>
      <use x="510.921875" xlink:href="#DejaVuSans-109"/>
      <use x="608.333984" xlink:href="#DejaVuSans-105"/>
      <use x="636.117188" xlink:href="#DejaVuSans-110"/>
      <use x="699.496094" xlink:href="#DejaVuSans-45"/>
      <use x="735.580078" xlink:href="#DejaVuSans-105"/>
      <use x="763.363281" xlink:href="#DejaVuSans-110"/>
      <use x="826.742188" xlink:href="#DejaVuSans-102"/>
      <use x="861.947266" xlink:href="#DejaVuSans-108"/>
      <use x="889.730469" xlink:href="#DejaVuSans-105"/>
      <use x="917.513672" xlink:href="#DejaVuSans-103"/>
      <use x="980.990234" xlink:href="#DejaVuSans-104"/>
      <use x="1044.369141" xlink:href="#DejaVuSans-116"/>
     </g>
    </g>
    <g id="line2d_36">
     <path d="M 290.469375 74.412813 
L 310.469375 74.412813 
" style="fill:none;stroke:#d62728;stroke-linecap:square;"/>
    </g>
    <g id="line2d_37"/>
    <g id="text_19">
     <!-- rnbd dual min-latency -->
     <defs>
      <path d="M 48.78125 52.59375 
L 48.78125 44.1875 
Q 44.96875 46.296875 41.140625 47.34375 
Q 37.3125 48.390625 33.40625 48.390625 
Q 24.65625 48.390625 19.8125 42.84375 
Q 14.984375 37.3125 14.984375 27.296875 
Q 14.984375 17.28125 19.8125 11.734375 
Q 24.65625 6.203125 33.40625 6.203125 
Q 37.3125 6.203125 41.140625 7.25 
Q 44.96875 8.296875 48.78125 10.40625 
L 48.78125 2.09375 
Q 45.015625 0.34375 40.984375 -0.53125 
Q 36.96875 -1.421875 32.421875 -1.421875 
Q 20.0625 -1.421875 12.78125 6.34375 
Q 5.515625 14.109375 5.515625 27.296875 
Q 5.515625 40.671875 12.859375 48.328125 
Q 20.21875 56 33.015625 56 
Q 37.15625 56 41.109375 55.140625 
Q 45.0625 54.296875 48.78125 52.59375 
z
" id="DejaVuSans-99"/>
      <path d="M 32.171875 -5.078125 
Q 28.375 -14.84375 24.75 -17.8125 
Q 21.140625 -20.796875 15.09375 -20.796875 
L 7.90625 -20.796875 
L 7.90625 -13.28125 
L 13.1875 -13.28125 
Q 16.890625 -13.28125 18.9375 -11.515625 
Q 21 -9.765625 23.484375 -3.21875 
L 25.09375 0.875 
L 2.984375 54.6875 
L 12.5 54.6875 
L 29.59375 11.921875 
L 46.6875 54.6875 
L 56.203125 54.6875 
z
" id="DejaVuSans-121"/>
     </defs>
     <g transform="translate(318.469375 77.912813)scale(0.1 -0.1)">
      <use xlink:href="#DejaVuSans-114"/>
      <use x="41.097656" xlink:href="#DejaVuSans-110"/>
      <use x="104.476562" xlink:href="#DejaVuSans-98"/>
      <use x="167.953125" xlink:href="#DejaVuSans-100"/>
      <use x="231.429688" xlink:href="#DejaVuSans-32"/>
      <use x="263.216797" xlink:href="#DejaVuSans-100"/>
      <use x="326.693359" xlink:href="#DejaVuSans-117"/>
      <use x="390.072266" xlink:href="#DejaVuSans-97"/>
      <use x="451.351562" xlink:href="#DejaVuSans-108"/>
      <use x="479.134766" xlink:href="#DejaVuSans-32"/>
      <use x="510.921875" xlink:href="#DejaVuSans-109"/>
      <use x="608.333984" xlink:href="#DejaVuSans-105"/>
      <use x="636.117188" xlink:href="#DejaVuSans-110"/>
      <use x="699.496094" xlink:href="#DejaVuSans-45"/>
      <use x="735.580078" xlink:href="#DejaVuSans-108"/>
      <use x="763.363281" xlink:href="#DejaVuSans-97"/>
      <use x="824.642578" xlink:href="#DejaVuSans-116"/>
      <use x="863.851562" xlink:href="#DejaVuSans-101"/>
      <use x="925.375" xlink:href="#DejaVuSans-110"/>
      <use x="988.753906" xlink:href="#DejaVuSans-99"/>
      <use x="1043.734375" xlink:href="#DejaVuSans-121"/>
     </g>
    </g>
    <g id="line2d_38">
     <path d="M 290.469375 89.090938 
L 310.469375 89.090938 
" style="fill:none;stroke:#9467bd;stroke-linecap:square;"/>
    </g>
    <g id="line2d_39"/>
    <g id="text_20">
     <!-- rnbd dual rr -->
     <g transform="translate(318.469375 92.590938)scale(0.1 -0.1)">
      <use xlink:href="#DejaVuSans-114"/>
      <use x="41.097656" xlink:href="#DejaVuSans-110"/>
      <use x="104.476562" xlink:href="#DejaVuSans-98"/>
      <use x="167.953125" xlink:href="#DejaVuSans-100"/>
      <use x="231.429688" xlink:href="#DejaVuSans-32"/>
      <use x="263.216797" xlink:href="#DejaVuSans-100"/>
      <use x="326.693359" xlink:href="#DejaVuSans-117"/>
      <use x="390.072266" xlink:href="#DejaVuSans-97"/>
      <use x="451.351562" xlink:href="#DejaVuSans-108"/>
      <use x="479.134766" xlink:href="#DejaVuSans-32"/>
      <use x="510.921875" xlink:href="#DejaVuSans-114"/>
      <use x="552.019531" xlink:href="#DejaVuSans-114"/>
     </g>
    </g>
   </g>
  </g>
 </g>
 <defs>
  <clipPath id="p1c2eb5b350">
   <rect height="290.304" width="380.16" x="57.6" y="17.28"/>
  </clipPath>
 </defs>
</svg>
