<?xml version="1.0" encoding="utf-8" standalone="no"?>
<!DOCTYPE svg PUBLIC "-//W3C//DTD SVG 1.1//EN"
  "http://www.w3.org/Graphics/SVG/1.1/DTD/svg11.dtd">
<!-- Created with matplotlib (https://matplotlib.org/) -->
<svg height="345.6pt" version="1.1" viewBox="0 0 460.8 345.6" width="460.8pt" xmlns="http://www.w3.org/2000/svg" xmlns:xlink="http://www.w3.org/1999/xlink">
 <defs>
  <style type="text/css">
*{stroke-linecap:butt;stroke-linejoin:round;}
  </style>
 </defs>
 <g id="figure_1">
  <g id="patch_1">
   <path d="M 0 345.6 
L 460.8 345.6 
L 460.8 0 
L 0 0 
z
" style="fill:#ffffff;"/>
  </g>
  <g id="axes_1">
   <g id="patch_2">
    <path d="M 57.6 307.584 
L 437.76 307.584 
L 437.76 17.28 
L 57.6 17.28 
z
" style="fill:#ffffff;"/>
   </g>
   <g id="matplotlib.axis_1">
    <g id="xtick_1">
     <g id="line2d_1">
      <path clip-path="url(#pe198da6189)" d="M 111.908571 307.584 
L 111.908571 17.28 
" style="fill:none;stroke:#b0b0b0;stroke-linecap:square;stroke-width:0.8;"/>
     </g>
     <g id="line2d_2">
      <defs>
       <path d="M 0 0 
L 0 3.5 
" id="mbcd9065a5a" style="stroke:#000000;stroke-width:0.8;"/>
      </defs>
      <g>
       <use style="stroke:#000000;stroke-width:0.8;" x="111.908571" xlink:href="#mbcd9065a5a" y="307.584"/>
      </g>
     </g>
     <g id="text_1">
      <!-- 10 -->
      <defs>
       <path d="M 12.40625 8.296875 
L 28.515625 8.296875 
L 28.515625 63.921875 
L 10.984375 60.40625 
L 10.984375 69.390625 
L 28.421875 72.90625 
L 38.28125 72.90625 
L 38.28125 8.296875 
L 54.390625 8.296875 
L 54.390625 0 
L 12.40625 0 
z
" id="DejaVuSans-49"/>
       <path d="M 31.78125 66.40625 
Q 24.171875 66.40625 20.328125 58.90625 
Q 16.5 51.421875 16.5 36.375 
Q 16.5 21.390625 20.328125 13.890625 
Q 24.171875 6.390625 31.78125 6.390625 
Q 39.453125 6.390625 43.28125 13.890625 
Q 47.125 21.390625 47.125 36.375 
Q 47.125 51.421875 43.28125 58.90625 
Q 39.453125 66.40625 31.78125 66.40625 
z
M 31.78125 74.21875 
Q 44.046875 74.21875 50.515625 64.515625 
Q 56.984375 54.828125 56.984375 36.375 
Q 56.984375 17.96875 50.515625 8.265625 
Q 44.046875 -1.421875 31.78125 -1.421875 
Q 19.53125 -1.421875 13.0625 8.265625 
Q 6.59375 17.96875 6.59375 36.375 
Q 6.59375 54.828125 13.0625 64.515625 
Q 19.53125 74.21875 31.78125 74.21875 
z
" id="DejaVuSans-48"/>
      </defs>
      <g transform="translate(105.546071 322.182437)scale(0.1 -0.1)">
       <use xlink:href="#DejaVuSans-49"/>
       <use x="63.623047" xlink:href="#DejaVuSans-48"/>
      </g>
     </g>
    </g>
    <g id="xtick_2">
     <g id="line2d_3">
      <path clip-path="url(#pe198da6189)" d="M 172.251429 307.584 
L 172.251429 17.28 
" style="fill:none;stroke:#b0b0b0;stroke-linecap:square;stroke-width:0.8;"/>
     </g>
     <g id="line2d_4">
      <g>
       <use style="stroke:#000000;stroke-width:0.8;" x="172.251429" xlink:href="#mbcd9065a5a" y="307.584"/>
      </g>
     </g>
     <g id="text_2">
      <!-- 20 -->
      <defs>
       <path d="M 19.1875 8.296875 
L 53.609375 8.296875 
L 53.609375 0 
L 7.328125 0 
L 7.328125 8.296875 
Q 12.9375 14.109375 22.625 23.890625 
Q 32.328125 33.6875 34.8125 36.53125 
Q 39.546875 41.84375 41.421875 45.53125 
Q 43.3125 49.21875 43.3125 52.78125 
Q 43.3125 58.59375 39.234375 62.25 
Q 35.15625 65.921875 28.609375 65.921875 
Q 23.96875 65.921875 18.8125 64.3125 
Q 13.671875 62.703125 7.8125 59.421875 
L 7.8125 69.390625 
Q 13.765625 71.78125 18.9375 73 
Q 24.125 74.21875 28.421875 74.21875 
Q 39.75 74.21875 46.484375 68.546875 
Q 53.21875 62.890625 53.21875 53.421875 
Q 53.21875 48.921875 51.53125 44.890625 
Q 49.859375 40.875 45.40625 35.40625 
Q 44.1875 33.984375 37.640625 27.21875 
Q 31.109375 20.453125 19.1875 8.296875 
z
" id="DejaVuSans-50"/>
      </defs>
      <g transform="translate(165.888929 322.182437)scale(0.1 -0.1)">
       <use xlink:href="#DejaVuSans-50"/>
       <use x="63.623047" xlink:href="#DejaVuSans-48"/>
      </g>
     </g>
    </g>
    <g id="xtick_3">
     <g id="line2d_5">
      <path clip-path="url(#pe198da6189)" d="M 232.594286 307.584 
L 232.594286 17.28 
" style="fill:none;stroke:#b0b0b0;stroke-linecap:square;stroke-width:0.8;"/>
     </g>
     <g id="line2d_6">
      <g>
       <use style="stroke:#000000;stroke-width:0.8;" x="232.594286" xlink:href="#mbcd9065a5a" y="307.584"/>
      </g>
     </g>
     <g id="text_3">
      <!-- 30 -->
      <defs>
       <path d="M 40.578125 39.3125 
Q 47.65625 37.796875 51.625 33 
Q 55.609375 28.21875 55.609375 21.1875 
Q 55.609375 10.40625 48.1875 4.484375 
Q 40.765625 -1.421875 27.09375 -1.421875 
Q 22.515625 -1.421875 17.65625 -0.515625 
Q 12.796875 0.390625 7.625 2.203125 
L 7.625 11.71875 
Q 11.71875 9.328125 16.59375 8.109375 
Q 21.484375 6.890625 26.8125 6.890625 
Q 36.078125 6.890625 40.9375 10.546875 
Q 45.796875 14.203125 45.796875 21.1875 
Q 45.796875 27.640625 41.28125 31.265625 
Q 36.765625 34.90625 28.71875 34.90625 
L 20.21875 34.90625 
L 20.21875 43.015625 
L 29.109375 43.015625 
Q 36.375 43.015625 40.234375 45.921875 
Q 44.09375 48.828125 44.09375 54.296875 
Q 44.09375 59.90625 40.109375 62.90625 
Q 36.140625 65.921875 28.71875 65.921875 
Q 24.65625 65.921875 20.015625 65.03125 
Q 15.375 64.15625 9.8125 62.3125 
L 9.8125 71.09375 
Q 15.4375 72.65625 20.34375 73.4375 
Q 25.25 74.21875 29.59375 74.21875 
Q 40.828125 74.21875 47.359375 69.109375 
Q 53.90625 64.015625 53.90625 55.328125 
Q 53.90625 49.265625 50.4375 45.09375 
Q 46.96875 40.921875 40.578125 39.3125 
z
" id="DejaVuSans-51"/>
      </defs>
      <g transform="translate(226.231786 322.182437)scale(0.1 -0.1)">
       <use xlink:href="#DejaVuSans-51"/>
       <use x="63.623047" xlink:href="#DejaVuSans-48"/>
      </g>
     </g>
    </g>
    <g id="xtick_4">
     <g id="line2d_7">
      <path clip-path="url(#pe198da6189)" d="M 292.937143 307.584 
L 292.937143 17.28 
" style="fill:none;stroke:#b0b0b0;stroke-linecap:square;stroke-width:0.8;"/>
     </g>
     <g id="line2d_8">
      <g>
       <use style="stroke:#000000;stroke-width:0.8;" x="292.937143" xlink:href="#mbcd9065a5a" y="307.584"/>
      </g>
     </g>
     <g id="text_4">
      <!-- 40 -->
      <defs>
       <path d="M 37.796875 64.3125 
L 12.890625 25.390625 
L 37.796875 25.390625 
z
M 35.203125 72.90625 
L 47.609375 72.90625 
L 47.609375 25.390625 
L 58.015625 25.390625 
L 58.015625 17.1875 
L 47.609375 17.1875 
L 47.609375 0 
L 37.796875 0 
L 37.796875 17.1875 
L 4.890625 17.1875 
L 4.890625 26.703125 
z
" id="DejaVuSans-52"/>
      </defs>
      <g transform="translate(286.574643 322.182437)scale(0.1 -0.1)">
       <use xlink:href="#DejaVuSans-52"/>
       <use x="63.623047" xlink:href="#DejaVuSans-48"/>
      </g>
     </g>
    </g>
    <g id="xtick_5">
     <g id="line2d_9">
      <path clip-path="url(#pe198da6189)" d="M 353.28 307.584 
L 353.28 17.28 
" style="fill:none;stroke:#b0b0b0;stroke-linecap:square;stroke-width:0.8;"/>
     </g>
     <g id="line2d_10">
      <g>
       <use style="stroke:#000000;stroke-width:0.8;" x="353.28" xlink:href="#mbcd9065a5a" y="307.584"/>
      </g>
     </g>
     <g id="text_5">
      <!-- 50 -->
      <defs>
       <path d="M 10.796875 72.90625 
L 49.515625 72.90625 
L 49.515625 64.59375 
L 19.828125 64.59375 
L 19.828125 46.734375 
Q 21.96875 47.46875 24.109375 47.828125 
Q 26.265625 48.1875 28.421875 48.1875 
Q 40.625 48.1875 47.75 41.5 
Q 54.890625 34.8125 54.890625 23.390625 
Q 54.890625 11.625 47.5625 5.09375 
Q 40.234375 -1.421875 26.90625 -1.421875 
Q 22.3125 -1.421875 17.546875 -0.640625 
Q 12.796875 0.140625 7.71875 1.703125 
L 7.71875 11.625 
Q 12.109375 9.234375 16.796875 8.0625 
Q 21.484375 6.890625 26.703125 6.890625 
Q 35.15625 6.890625 40.078125 11.328125 
Q 45.015625 15.765625 45.015625 23.390625 
Q 45.015625 31 40.078125 35.4375 
Q 35.15625 39.890625 26.703125 39.890625 
Q 22.75 39.890625 18.8125 39.015625 
Q 14.890625 38.140625 10.796875 36.28125 
z
" id="DejaVuSans-53"/>
      </defs>
      <g transform="translate(346.9175 322.182437)scale(0.1 -0.1)">
       <use xlink:href="#DejaVuSans-53"/>
       <use x="63.623047" xlink:href="#DejaVuSans-48"/>
      </g>
     </g>
    </g>
    <g id="xtick_6">
     <g id="line2d_11">
      <path clip-path="url(#pe198da6189)" d="M 413.622857 307.584 
L 413.622857 17.28 
" style="fill:none;stroke:#b0b0b0;stroke-linecap:square;stroke-width:0.8;"/>
     </g>
     <g id="line2d_12">
      <g>
       <use style="stroke:#000000;stroke-width:0.8;" x="413.622857" xlink:href="#mbcd9065a5a" y="307.584"/>
      </g>
     </g>
     <g id="text_6">
      <!-- 60 -->
      <defs>
       <path d="M 33.015625 40.375 
Q 26.375 40.375 22.484375 35.828125 
Q 18.609375 31.296875 18.609375 23.390625 
Q 18.609375 15.53125 22.484375 10.953125 
Q 26.375 6.390625 33.015625 6.390625 
Q 39.65625 6.390625 43.53125 10.953125 
Q 47.40625 15.53125 47.40625 23.390625 
Q 47.40625 31.296875 43.53125 35.828125 
Q 39.65625 40.375 33.015625 40.375 
z
M 52.59375 71.296875 
L 52.59375 62.3125 
Q 48.875 64.0625 45.09375 64.984375 
Q 41.3125 65.921875 37.59375 65.921875 
Q 27.828125 65.921875 22.671875 59.328125 
Q 17.53125 52.734375 16.796875 39.40625 
Q 19.671875 43.65625 24.015625 45.921875 
Q 28.375 48.1875 33.59375 48.1875 
Q 44.578125 48.1875 50.953125 41.515625 
Q 57.328125 34.859375 57.328125 23.390625 
Q 57.328125 12.15625 50.6875 5.359375 
Q 44.046875 -1.421875 33.015625 -1.421875 
Q 20.359375 -1.421875 13.671875 8.265625 
Q 6.984375 17.96875 6.984375 36.375 
Q 6.984375 53.65625 15.1875 63.9375 
Q 23.390625 74.21875 37.203125 74.21875 
Q 40.921875 74.21875 44.703125 73.484375 
Q 48.484375 72.75 52.59375 71.296875 
z
" id="DejaVuSans-54"/>
      </defs>
      <g transform="translate(407.260357 322.182437)scale(0.1 -0.1)">
       <use xlink:href="#DejaVuSans-54"/>
       <use x="63.623047" xlink:href="#DejaVuSans-48"/>
      </g>
     </g>
    </g>
    <g id="text_7">
     <!-- number of jobs -->
     <defs>
      <path d="M 54.890625 33.015625 
L 54.890625 0 
L 45.90625 0 
L 45.90625 32.71875 
Q 45.90625 40.484375 42.875 44.328125 
Q 39.84375 48.1875 33.796875 48.1875 
Q 26.515625 48.1875 22.3125 43.546875 
Q 18.109375 38.921875 18.109375 30.90625 
L 18.109375 0 
L 9.078125 0 
L 9.078125 54.6875 
L 18.109375 54.6875 
L 18.109375 46.1875 
Q 21.34375 51.125 25.703125 53.5625 
Q 30.078125 56 35.796875 56 
Q 45.21875 56 50.046875 50.171875 
Q 54.890625 44.34375 54.890625 33.015625 
z
" id="DejaVuSans-110"/>
      <path d="M 8.5 21.578125 
L 8.5 54.6875 
L 17.484375 54.6875 
L 17.484375 21.921875 
Q 17.484375 14.15625 20.5 10.265625 
Q 23.53125 6.390625 29.59375 6.390625 
Q 36.859375 6.390625 41.078125 11.03125 
Q 45.3125 15.671875 45.3125 23.6875 
L 45.3125 54.6875 
L 54.296875 54.6875 
L 54.296875 0 
L 45.3125 0 
L 45.3125 8.40625 
Q 42.046875 3.421875 37.71875 1 
Q 33.40625 -1.421875 27.6875 -1.421875 
Q 18.265625 -1.421875 13.375 4.4375 
Q 8.5 10.296875 8.5 21.578125 
z
M 31.109375 56 
z
" id="DejaVuSans-117"/>
      <path d="M 52 44.1875 
Q 55.375 50.25 60.0625 53.125 
Q 64.75 56 71.09375 56 
Q 79.640625 56 84.28125 50.015625 
Q 88.921875 44.046875 88.921875 33.015625 
L 88.921875 0 
L 79.890625 0 
L 79.890625 32.71875 
Q 79.890625 40.578125 77.09375 44.375 
Q 74.3125 48.1875 68.609375 48.1875 
Q 61.625 48.1875 57.5625 43.546875 
Q 53.515625 38.921875 53.515625 30.90625 
L 53.515625 0 
L 44.484375 0 
L 44.484375 32.71875 
Q 44.484375 40.625 41.703125 44.40625 
Q 38.921875 48.1875 33.109375 48.1875 
Q 26.21875 48.1875 22.15625 43.53125 
Q 18.109375 38.875 18.109375 30.90625 
L 18.109375 0 
L 9.078125 0 
L 9.078125 54.6875 
L 18.109375 54.6875 
L 18.109375 46.1875 
Q 21.1875 51.21875 25.484375 53.609375 
Q 29.78125 56 35.6875 56 
Q 41.65625 56 45.828125 52.96875 
Q 50 49.953125 52 44.1875 
z
" id="DejaVuSans-109"/>
      <path d="M 48.6875 27.296875 
Q 48.6875 37.203125 44.609375 42.84375 
Q 40.53125 48.484375 33.40625 48.484375 
Q 26.265625 48.484375 22.1875 42.84375 
Q 18.109375 37.203125 18.109375 27.296875 
Q 18.109375 17.390625 22.1875 11.75 
Q 26.265625 6.109375 33.40625 6.109375 
Q 40.53125 6.109375 44.609375 11.75 
Q 48.6875 17.390625 48.6875 27.296875 
z
M 18.109375 46.390625 
Q 20.953125 51.265625 25.265625 53.625 
Q 29.59375 56 35.59375 56 
Q 45.5625 56 51.78125 48.09375 
Q 58.015625 40.1875 58.015625 27.296875 
Q 58.015625 14.40625 51.78125 6.484375 
Q 45.5625 -1.421875 35.59375 -1.421875 
Q 29.59375 -1.421875 25.265625 0.953125 
Q 20.953125 3.328125 18.109375 8.203125 
L 18.109375 0 
L 9.078125 0 
L 9.078125 75.984375 
L 18.109375 75.984375 
z
" id="DejaVuSans-98"/>
      <path d="M 56.203125 29.59375 
L 56.203125 25.203125 
L 14.890625 25.203125 
Q 15.484375 15.921875 20.484375 11.0625 
Q 25.484375 6.203125 34.421875 6.203125 
Q 39.59375 6.203125 44.453125 7.46875 
Q 49.3125 8.734375 54.109375 11.28125 
L 54.109375 2.78125 
Q 49.265625 0.734375 44.1875 -0.34375 
Q 39.109375 -1.421875 33.890625 -1.421875 
Q 20.796875 -1.421875 13.15625 6.1875 
Q 5.515625 13.8125 5.515625 26.8125 
Q 5.515625 40.234375 12.765625 48.109375 
Q 20.015625 56 32.328125 56 
Q 43.359375 56 49.78125 48.890625 
Q 56.203125 41.796875 56.203125 29.59375 
z
M 47.21875 32.234375 
Q 47.125 39.59375 43.09375 43.984375 
Q 39.0625 48.390625 32.421875 48.390625 
Q 24.90625 48.390625 20.390625 44.140625 
Q 15.875 39.890625 15.1875 32.171875 
z
" id="DejaVuSans-101"/>
      <path d="M 41.109375 46.296875 
Q 39.59375 47.171875 37.8125 47.578125 
Q 36.03125 48 33.890625 48 
Q 26.265625 48 22.1875 43.046875 
Q 18.109375 38.09375 18.109375 28.8125 
L 18.109375 0 
L 9.078125 0 
L 9.078125 54.6875 
L 18.109375 54.6875 
L 18.109375 46.1875 
Q 20.953125 51.171875 25.484375 53.578125 
Q 30.03125 56 36.53125 56 
Q 37.453125 56 38.578125 55.875 
Q 39.703125 55.765625 41.0625 55.515625 
z
" id="DejaVuSans-114"/>
      <path id="DejaVuSans-32"/>
      <path d="M 30.609375 48.390625 
Q 23.390625 48.390625 19.1875 42.75 
Q 14.984375 37.109375 14.984375 27.296875 
Q 14.984375 17.484375 19.15625 11.84375 
Q 23.34375 6.203125 30.609375 6.203125 
Q 37.796875 6.203125 41.984375 11.859375 
Q 46.1875 17.53125 46.1875 27.296875 
Q 46.1875 37.015625 41.984375 42.703125 
Q 37.796875 48.390625 30.609375 48.390625 
z
M 30.609375 56 
Q 42.328125 56 49.015625 48.375 
Q 55.71875 40.765625 55.71875 27.296875 
Q 55.71875 13.875 49.015625 6.21875 
Q 42.328125 -1.421875 30.609375 -1.421875 
Q 18.84375 -1.421875 12.171875 6.21875 
Q 5.515625 13.875 5.515625 27.296875 
Q 5.515625 40.765625 12.171875 48.375 
Q 18.84375 56 30.609375 56 
z
" id="DejaVuSans-111"/>
      <path d="M 37.109375 75.984375 
L 37.109375 68.5 
L 28.515625 68.5 
Q 23.6875 68.5 21.796875 66.546875 
Q 19.921875 64.59375 19.921875 59.515625 
L 19.921875 54.6875 
L 34.71875 54.6875 
L 34.71875 47.703125 
L 19.921875 47.703125 
L 19.921875 0 
L 10.890625 0 
L 10.890625 47.703125 
L 2.296875 47.703125 
L 2.296875 54.6875 
L 10.890625 54.6875 
L 10.890625 58.5 
Q 10.890625 67.625 15.140625 71.796875 
Q 19.390625 75.984375 28.609375 75.984375 
z
" id="DejaVuSans-102"/>
      <path d="M 9.421875 54.6875 
L 18.40625 54.6875 
L 18.40625 -0.984375 
Q 18.40625 -11.421875 14.421875 -16.109375 
Q 10.453125 -20.796875 1.609375 -20.796875 
L -1.8125 -20.796875 
L -1.8125 -13.1875 
L 0.59375 -13.1875 
Q 5.71875 -13.1875 7.5625 -10.8125 
Q 9.421875 -8.453125 9.421875 -0.984375 
z
M 9.421875 75.984375 
L 18.40625 75.984375 
L 18.40625 64.59375 
L 9.421875 64.59375 
z
" id="DejaVuSans-106"/>
      <path d="M 44.28125 53.078125 
L 44.28125 44.578125 
Q 40.484375 46.53125 36.375 47.5 
Q 32.28125 48.484375 27.875 48.484375 
Q 21.1875 48.484375 17.84375 46.4375 
Q 14.5 44.390625 14.5 40.28125 
Q 14.5 37.15625 16.890625 35.375 
Q 19.28125 33.59375 26.515625 31.984375 
L 29.59375 31.296875 
Q 39.15625 29.25 43.1875 25.515625 
Q 47.21875 21.78125 47.21875 15.09375 
Q 47.21875 7.46875 41.1875 3.015625 
Q 35.15625 -1.421875 24.609375 -1.421875 
Q 20.21875 -1.421875 15.453125 -0.5625 
Q 10.6875 0.296875 5.421875 2 
L 5.421875 11.28125 
Q 10.40625 8.6875 15.234375 7.390625 
Q 20.0625 6.109375 24.8125 6.109375 
Q 31.15625 6.109375 34.5625 8.28125 
Q 37.984375 10.453125 37.984375 14.40625 
Q 37.984375 18.0625 35.515625 20.015625 
Q 33.0625 21.96875 24.703125 23.78125 
L 21.578125 24.515625 
Q 13.234375 26.265625 9.515625 29.90625 
Q 5.8125 33.546875 5.8125 39.890625 
Q 5.8125 47.609375 11.28125 51.796875 
Q 16.75 56 26.8125 56 
Q 31.78125 56 36.171875 55.265625 
Q 40.578125 54.546875 44.28125 53.078125 
z
" id="DejaVuSans-115"/>
     </defs>
     <g transform="translate(209.940937 335.860562)scale(0.1 -0.1)">
      <use xlink:href="#DejaVuSans-110"/>
      <use x="63.378906" xlink:href="#DejaVuSans-117"/>
      <use x="126.757812" xlink:href="#DejaVuSans-109"/>
      <use x="224.169922" xlink:href="#DejaVuSans-98"/>
      <use x="287.646484" xlink:href="#DejaVuSans-101"/>
      <use x="349.169922" xlink:href="#DejaVuSans-114"/>
      <use x="390.283203" xlink:href="#DejaVuSans-32"/>
      <use x="422.070312" xlink:href="#DejaVuSans-111"/>
      <use x="483.251953" xlink:href="#DejaVuSans-102"/>
      <use x="518.457031" xlink:href="#DejaVuSans-32"/>
      <use x="550.244141" xlink:href="#DejaVuSans-106"/>
      <use x="578.027344" xlink:href="#DejaVuSans-111"/>
      <use x="639.208984" xlink:href="#DejaVuSans-98"/>
      <use x="702.685547" xlink:href="#DejaVuSans-115"/>
     </g>
    </g>
   </g>
   <g id="matplotlib.axis_2">
    <g id="ytick_1">
     <g id="line2d_13">
      <path clip-path="url(#pe198da6189)" d="M 57.6 300.708809 
L 437.76 300.708809 
" style="fill:none;stroke:#b0b0b0;stroke-linecap:square;stroke-width:0.8;"/>
     </g>
     <g id="line2d_14">
      <defs>
       <path d="M 0 0 
L -3.5 0 
" id="m3b30a04f6f" style="stroke:#000000;stroke-width:0.8;"/>
      </defs>
      <g>
       <use style="stroke:#000000;stroke-width:0.8;" x="57.6" xlink:href="#m3b30a04f6f" y="300.708809"/>
      </g>
     </g>
     <g id="text_8">
      <!-- 500 -->
      <g transform="translate(31.5125 304.508028)scale(0.1 -0.1)">
       <use xlink:href="#DejaVuSans-53"/>
       <use x="63.623047" xlink:href="#DejaVuSans-48"/>
       <use x="127.246094" xlink:href="#DejaVuSans-48"/>
      </g>
     </g>
    </g>
    <g id="ytick_2">
     <g id="line2d_15">
      <path clip-path="url(#pe198da6189)" d="M 57.6 251.333344 
L 437.76 251.333344 
" style="fill:none;stroke:#b0b0b0;stroke-linecap:square;stroke-width:0.8;"/>
     </g>
     <g id="line2d_16">
      <g>
       <use style="stroke:#000000;stroke-width:0.8;" x="57.6" xlink:href="#m3b30a04f6f" y="251.333344"/>
      </g>
     </g>
     <g id="text_9">
      <!-- 1000 -->
      <g transform="translate(25.15 255.132563)scale(0.1 -0.1)">
       <use xlink:href="#DejaVuSans-49"/>
       <use x="63.623047" xlink:href="#DejaVuSans-48"/>
       <use x="127.246094" xlink:href="#DejaVuSans-48"/>
       <use x="190.869141" xlink:href="#DejaVuSans-48"/>
      </g>
     </g>
    </g>
    <g id="ytick_3">
     <g id="line2d_17">
      <path clip-path="url(#pe198da6189)" d="M 57.6 201.957879 
L 437.76 201.957879 
" style="fill:none;stroke:#b0b0b0;stroke-linecap:square;stroke-width:0.8;"/>
     </g>
     <g id="line2d_18">
      <g>
       <use style="stroke:#000000;stroke-width:0.8;" x="57.6" xlink:href="#m3b30a04f6f" y="201.957879"/>
      </g>
     </g>
     <g id="text_10">
      <!-- 1500 -->
      <g transform="translate(25.15 205.757098)scale(0.1 -0.1)">
       <use xlink:href="#DejaVuSans-49"/>
       <use x="63.623047" xlink:href="#DejaVuSans-53"/>
       <use x="127.246094" xlink:href="#DejaVuSans-48"/>
       <use x="190.869141" xlink:href="#DejaVuSans-48"/>
      </g>
     </g>
    </g>
    <g id="ytick_4">
     <g id="line2d_19">
      <path clip-path="url(#pe198da6189)" d="M 57.6 152.582414 
L 437.76 152.582414 
" style="fill:none;stroke:#b0b0b0;stroke-linecap:square;stroke-width:0.8;"/>
     </g>
     <g id="line2d_20">
      <g>
       <use style="stroke:#000000;stroke-width:0.8;" x="57.6" xlink:href="#m3b30a04f6f" y="152.582414"/>
      </g>
     </g>
     <g id="text_11">
      <!-- 2000 -->
      <g transform="translate(25.15 156.381633)scale(0.1 -0.1)">
       <use xlink:href="#DejaVuSans-50"/>
       <use x="63.623047" xlink:href="#DejaVuSans-48"/>
       <use x="127.246094" xlink:href="#DejaVuSans-48"/>
       <use x="190.869141" xlink:href="#DejaVuSans-48"/>
      </g>
     </g>
    </g>
    <g id="ytick_5">
     <g id="line2d_21">
      <path clip-path="url(#pe198da6189)" d="M 57.6 103.20695 
L 437.76 103.20695 
" style="fill:none;stroke:#b0b0b0;stroke-linecap:square;stroke-width:0.8;"/>
     </g>
     <g id="line2d_22">
      <g>
       <use style="stroke:#000000;stroke-width:0.8;" x="57.6" xlink:href="#m3b30a04f6f" y="103.20695"/>
      </g>
     </g>
     <g id="text_12">
      <!-- 2500 -->
      <g transform="translate(25.15 107.006168)scale(0.1 -0.1)">
       <use xlink:href="#DejaVuSans-50"/>
       <use x="63.623047" xlink:href="#DejaVuSans-53"/>
       <use x="127.246094" xlink:href="#DejaVuSans-48"/>
       <use x="190.869141" xlink:href="#DejaVuSans-48"/>
      </g>
     </g>
    </g>
    <g id="ytick_6">
     <g id="line2d_23">
      <path clip-path="url(#pe198da6189)" d="M 57.6 53.831485 
L 437.76 53.831485 
" style="fill:none;stroke:#b0b0b0;stroke-linecap:square;stroke-width:0.8;"/>
     </g>
     <g id="line2d_24">
      <g>
       <use style="stroke:#000000;stroke-width:0.8;" x="57.6" xlink:href="#m3b30a04f6f" y="53.831485"/>
      </g>
     </g>
     <g id="text_13">
      <!-- 3000 -->
      <g transform="translate(25.15 57.630704)scale(0.1 -0.1)">
       <use xlink:href="#DejaVuSans-51"/>
       <use x="63.623047" xlink:href="#DejaVuSans-48"/>
       <use x="127.246094" xlink:href="#DejaVuSans-48"/>
       <use x="190.869141" xlink:href="#DejaVuSans-48"/>
      </g>
     </g>
    </g>
    <g id="text_14">
     <!-- MB/s -->
     <defs>
      <path d="M 9.8125 72.90625 
L 24.515625 72.90625 
L 43.109375 23.296875 
L 61.8125 72.90625 
L 76.515625 72.90625 
L 76.515625 0 
L 66.890625 0 
L 66.890625 64.015625 
L 48.09375 14.015625 
L 38.1875 14.015625 
L 19.390625 64.015625 
L 19.390625 0 
L 9.8125 0 
z
" id="DejaVuSans-77"/>
      <path d="M 19.671875 34.8125 
L 19.671875 8.109375 
L 35.5 8.109375 
Q 43.453125 8.109375 47.28125 11.40625 
Q 51.125 14.703125 51.125 21.484375 
Q 51.125 28.328125 47.28125 31.5625 
Q 43.453125 34.8125 35.5 34.8125 
z
M 19.671875 64.796875 
L 19.671875 42.828125 
L 34.28125 42.828125 
Q 41.5 42.828125 45.03125 45.53125 
Q 48.578125 48.25 48.578125 53.8125 
Q 48.578125 59.328125 45.03125 62.0625 
Q 41.5 64.796875 34.28125 64.796875 
z
M 9.8125 72.90625 
L 35.015625 72.90625 
Q 46.296875 72.90625 52.390625 68.21875 
Q 58.5 63.53125 58.5 54.890625 
Q 58.5 48.1875 55.375 44.234375 
Q 52.25 40.28125 46.1875 39.3125 
Q 53.46875 37.75 57.5 32.78125 
Q 61.53125 27.828125 61.53125 20.40625 
Q 61.53125 10.640625 54.890625 5.3125 
Q 48.25 0 35.984375 0 
L 9.8125 0 
z
" id="DejaVuSans-66"/>
      <path d="M 25.390625 72.90625 
L 33.6875 72.90625 
L 8.296875 -9.28125 
L 0 -9.28125 
z
" id="DejaVuSans-47"/>
     </defs>
     <g transform="translate(19.070312 174.465594)rotate(-90)scale(0.1 -0.1)">
      <use xlink:href="#DejaVuSans-77"/>
      <use x="86.279297" xlink:href="#DejaVuSans-66"/>
      <use x="154.882812" xlink:href="#DejaVuSans-47"/>
      <use x="188.574219" xlink:href="#DejaVuSans-115"/>
     </g>
    </g>
   </g>
   <g id="line2d_25">
    <path clip-path="url(#pe198da6189)" d="M 57.6 225.081316 
L 63.634286 76.385464 
L 69.668571 111.264987 
L 75.702857 109.398267 
L 81.737143 131.573251 
L 87.771429 139.080057 
L 93.805714 97.616046 
L 99.84 147.47109 
L 105.874286 136.514847 
L 111.908571 143.899951 
L 117.942857 145.085637 
L 123.977143 145.582671 
L 130.011429 143.705342 
L 136.045714 151.127671 
L 142.08 153.192664 
L 148.114286 153.988072 
L 154.148571 164.506879 
L 160.182857 163.934914 
L 166.217143 170.516702 
L 172.251429 174.774275 
L 178.285714 179.706517 
L 184.32 182.41561 
L 190.354286 186.300167 
L 196.388571 186.770777 
L 202.422857 194.306129 
L 208.457143 196.974236 
L 214.491429 200.870848 
L 220.525714 204.032227 
L 226.56 207.198043 
L 232.594286 211.344618 
L 238.628571 212.328173 
L 244.662857 216.290265 
L 250.697143 218.027664 
L 256.731429 220.347347 
L 262.765714 221.964875 
L 268.8 223.76843 
L 274.834286 226.411464 
L 280.868571 225.967471 
L 286.902857 228.79682 
L 292.937143 228.043362 
L 298.971429 229.0409 
L 305.005714 228.669716 
L 311.04 230.140372 
L 317.074286 228.94186 
L 323.108571 229.318541 
L 329.142857 229.462713 
L 335.177143 229.881826 
L 341.211429 229.918472 
L 347.245714 230.265643 
L 353.28 229.726081 
L 359.314286 230.639817 
L 365.348571 229.732157 
L 371.382857 230.31743 
L 377.417143 230.577037 
L 383.451429 231.879893 
L 389.485714 231.547091 
L 395.52 230.344528 
L 401.554286 230.618601 
L 407.588571 231.166746 
L 413.622857 231.106955 
L 419.657143 231.097601 
L 425.691429 231.247752 
L 431.725714 231.414491 
L 437.76 231.15662 
" style="fill:none;stroke:#1f77b4;stroke-linecap:square;"/>
   </g>
   <g id="line2d_26">
    <path clip-path="url(#pe198da6189)" d="M 57.6 222.64456 
L 63.634286 160.541604 
L 69.668571 139.861 
L 75.702857 116.813169 
L 81.737143 30.475636 
L 87.771429 127.386558 
L 93.805714 67.487755 
L 99.84 134.248398 
L 105.874286 143.04157 
L 111.908571 143.586726 
L 117.942857 153.594033 
L 123.977143 143.711514 
L 130.011429 143.089692 
L 136.045714 152.319625 
L 142.08 148.549056 
L 148.114286 158.002722 
L 154.148571 164.058256 
L 160.182857 167.9594 
L 166.217143 167.166885 
L 172.251429 176.468181 
L 178.285714 178.766841 
L 184.32 181.539292 
L 190.354286 182.855553 
L 196.388571 190.391773 
L 202.422857 195.249759 
L 208.457143 197.825963 
L 214.491429 201.401248 
L 220.525714 204.249692 
L 226.56 208.018428 
L 232.594286 211.008344 
L 238.628571 213.41048 
L 244.662857 215.696795 
L 250.697143 218.528362 
L 256.731429 221.797558 
L 262.765714 222.43915 
L 268.8 223.163002 
L 274.834286 224.942158 
L 280.868571 226.924602 
L 286.902857 227.039169 
L 292.937143 228.52699 
L 298.971429 227.051223 
L 305.005714 228.111542 
L 311.04 228.985353 
L 317.074286 228.851403 
L 323.108571 229.086129 
L 329.142857 229.123257 
L 335.177143 228.365749 
L 341.211429 229.949814 
L 347.245714 230.297467 
L 353.28 230.53634 
L 359.314286 230.465845 
L 365.348571 230.396508 
L 371.382857 230.571347 
L 377.417143 229.910661 
L 383.451429 230.735289 
L 389.485714 230.760459 
L 395.52 230.720341 
L 401.554286 230.473657 
L 407.588571 230.608089 
L 413.622857 230.339321 
L 419.657143 230.951403 
L 425.691429 230.630945 
L 431.725714 229.804098 
L 437.76 230.671737 
" style="fill:none;stroke:#ff7f0e;stroke-linecap:square;"/>
   </g>
   <g id="line2d_27">
    <path clip-path="url(#pe198da6189)" d="M 57.6 275.689142 
L 63.634286 160.943648 
L 69.668571 152.71675 
L 75.702857 119.146353 
L 81.737143 138.728161 
L 87.771429 138.753427 
L 93.805714 135.787042 
L 99.84 143.164623 
L 105.874286 159.97099 
L 111.908571 171.764975 
L 117.942857 182.829226 
L 123.977143 196.041406 
L 130.011429 200.086144 
L 136.045714 219.272466 
L 142.08 221.555213 
L 148.114286 237.603107 
L 154.148571 242.966324 
L 160.182857 249.868667 
L 166.217143 253.838763 
L 172.251429 258.335209 
L 178.285714 261.81184 
L 184.32 265.358098 
L 190.354286 268.710132 
L 196.388571 271.301573 
L 202.422857 274.25166 
L 208.457143 275.658283 
L 214.491429 278.025605 
L 220.525714 279.15854 
L 226.56 281.886052 
L 232.594286 282.418767 
L 238.628571 284.419438 
L 244.662857 285.463266 
L 250.697143 286.87905 
L 256.731429 288.238707 
L 262.765714 289.028618 
L 268.8 289.729808 
L 274.834286 290.684529 
L 280.868571 291.258422 
L 286.902857 291.276456 
L 292.937143 292.053155 
L 298.971429 292.869779 
L 305.005714 291.585438 
L 311.04 292.732068 
L 317.074286 292.700726 
L 323.108571 292.825032 
L 329.142857 293.193323 
L 335.177143 292.812978 
L 341.211429 292.442565 
L 347.245714 293.339424 
L 353.28 292.043608 
L 359.314286 293.588327 
L 365.348571 294.110627 
L 371.382857 293.07326 
L 377.417143 293.626419 
L 383.451429 293.159185 
L 389.485714 293.808781 
L 395.52 293.074513 
L 401.554286 293.706269 
L 407.588571 293.049729 
L 413.622857 293.135075 
L 419.657143 292.887041 
L 425.691429 291.698558 
L 431.725714 292.312087 
L 437.76 292.295307 
" style="fill:none;stroke:#2ca02c;stroke-linecap:square;"/>
   </g>
   <g id="line2d_28">
    <path clip-path="url(#pe198da6189)" d="M 57.6 285.126703 
L 63.634286 184.212029 
L 69.668571 130.927898 
L 75.702857 93.898228 
L 81.737143 96.018866 
L 87.771429 103.284099 
L 93.805714 113.698657 
L 99.84 117.972142 
L 105.874286 122.324512 
L 111.908571 141.080921 
L 117.942857 138.429497 
L 123.977143 163.634225 
L 130.011429 183.245446 
L 136.045714 193.557685 
L 142.08 212.618254 
L 148.114286 218.010209 
L 154.148571 222.68786 
L 160.182857 233.793578 
L 166.217143 241.88749 
L 172.251429 247.548503 
L 178.285714 252.758386 
L 184.32 258.072131 
L 190.354286 262.413603 
L 196.388571 265.934595 
L 202.422857 268.779277 
L 208.457143 271.807671 
L 214.491429 274.765956 
L 220.525714 276.496219 
L 226.56 279.347266 
L 232.594286 280.309991 
L 238.628571 282.98591 
L 244.662857 284.049026 
L 250.697143 284.970379 
L 256.731429 286.820706 
L 262.765714 288.768722 
L 268.8 289.408385 
L 274.834286 290.5121 
L 280.868571 290.238317 
L 286.902857 291.931549 
L 292.937143 291.84138 
L 298.971429 291.912261 
L 305.005714 292.738818 
L 311.04 292.484612 
L 317.074286 292.147373 
L 323.108571 292.340439 
L 329.142857 292.673723 
L 335.177143 293.45592 
L 341.211429 293.522268 
L 347.245714 293.279923 
L 353.28 293.346946 
L 359.314286 293.596331 
L 365.348571 294.33243 
L 371.382857 293.457655 
L 377.417143 293.643874 
L 383.451429 292.449605 
L 389.485714 293.614654 
L 395.52 294.388364 
L 401.554286 292.822621 
L 407.588571 293.6513 
L 413.622857 293.797112 
L 419.657143 292.760613 
L 425.691429 293.473664 
L 431.725714 294.320858 
L 437.76 293.354372 
" style="fill:none;stroke:#d62728;stroke-linecap:square;"/>
   </g>
   <g id="line2d_29">
    <path clip-path="url(#pe198da6189)" d="M 57.6 273.900921 
L 63.634286 159.177993 
L 69.668571 132.314847 
L 75.702857 128.857889 
L 81.737143 130.81825 
L 87.771429 122.752883 
L 93.805714 154.926978 
L 99.84 144.768844 
L 105.874286 148.847334 
L 111.908571 164.743437 
L 117.942857 179.746539 
L 123.977143 183.67536 
L 130.011429 211.188198 
L 136.045714 216.735898 
L 142.08 231.616043 
L 148.114286 237.852396 
L 154.148571 243.840714 
L 160.182857 248.904978 
L 166.217143 254.632146 
L 172.251429 259.155016 
L 178.285714 263.184613 
L 184.32 265.918393 
L 190.354286 269.170038 
L 196.388571 271.195493 
L 202.422857 274.398244 
L 208.457143 276.41068 
L 214.491429 278.331115 
L 220.525714 280.082112 
L 226.56 281.978053 
L 232.594286 282.634689 
L 238.628571 283.870522 
L 244.662857 285.76868 
L 250.697143 286.27584 
L 256.731429 288.239961 
L 262.765714 287.879385 
L 268.8 290.337647 
L 274.834286 290.380947 
L 280.868571 291.40462 
L 286.902857 291.552457 
L 292.937143 292.134837 
L 298.971429 291.448884 
L 305.005714 292.30495 
L 311.04 291.951318 
L 317.074286 292.524151 
L 323.108571 292.793208 
L 329.142857 292.625312 
L 335.177143 293.142115 
L 341.211429 293.037096 
L 347.245714 293.271437 
L 353.28 293.645706 
L 359.314286 293.53384 
L 365.348571 292.875661 
L 371.382857 292.087968 
L 377.417143 293.505777 
L 383.451429 292.902278 
L 389.485714 292.123746 
L 395.52 293.645031 
L 401.554286 293.092836 
L 407.588571 292.905364 
L 413.622857 292.952907 
L 419.657143 292.634474 
L 425.691429 292.962358 
L 431.725714 292.916261 
L 437.76 293.351672 
" style="fill:none;stroke:#9467bd;stroke-linecap:square;"/>
   </g>
   <g id="patch_3">
    <path d="M 57.6 307.584 
L 57.6 17.28 
" style="fill:none;stroke:#000000;stroke-linecap:square;stroke-linejoin:miter;stroke-width:0.8;"/>
   </g>
   <g id="patch_4">
    <path d="M 437.76 307.584 
L 437.76 17.28 
" style="fill:none;stroke:#000000;stroke-linecap:square;stroke-linejoin:miter;stroke-width:0.8;"/>
   </g>
   <g id="patch_5">
    <path d="M 57.6 307.584 
L 437.76 307.584 
" style="fill:none;stroke:#000000;stroke-linecap:square;stroke-linejoin:miter;stroke-width:0.8;"/>
   </g>
   <g id="patch_6">
    <path d="M 57.6 17.28 
L 437.76 17.28 
" style="fill:none;stroke:#000000;stroke-linecap:square;stroke-linejoin:miter;stroke-width:0.8;"/>
   </g>
   <g id="text_15">
    <!-- Write Bandwidth -->
    <defs>
     <path d="M 3.328125 72.90625 
L 13.28125 72.90625 
L 28.609375 11.28125 
L 43.890625 72.90625 
L 54.984375 72.90625 
L 70.3125 11.28125 
L 85.59375 72.90625 
L 95.609375 72.90625 
L 77.296875 0 
L 64.890625 0 
L 49.515625 63.28125 
L 33.984375 0 
L 21.578125 0 
z
" id="DejaVuSans-87"/>
     <path d="M 9.421875 54.6875 
L 18.40625 54.6875 
L 18.40625 0 
L 9.421875 0 
z
M 9.421875 75.984375 
L 18.40625 75.984375 
L 18.40625 64.59375 
L 9.421875 64.59375 
z
" id="DejaVuSans-105"/>
     <path d="M 18.3125 70.21875 
L 18.3125 54.6875 
L 36.8125 54.6875 
L 36.8125 47.703125 
L 18.3125 47.703125 
L 18.3125 18.015625 
Q 18.3125 11.328125 20.140625 9.421875 
Q 21.96875 7.515625 27.59375 7.515625 
L 36.8125 7.515625 
L 36.8125 0 
L 27.59375 0 
Q 17.1875 0 13.234375 3.875 
Q 9.28125 7.765625 9.28125 18.015625 
L 9.28125 47.703125 
L 2.6875 47.703125 
L 2.6875 54.6875 
L 9.28125 54.6875 
L 9.28125 70.21875 
z
" id="DejaVuSans-116"/>
     <path d="M 34.28125 27.484375 
Q 23.390625 27.484375 19.1875 25 
Q 14.984375 22.515625 14.984375 16.5 
Q 14.984375 11.71875 18.140625 8.90625 
Q 21.296875 6.109375 26.703125 6.109375 
Q 34.1875 6.109375 38.703125 11.40625 
Q 43.21875 16.703125 43.21875 25.484375 
L 43.21875 27.484375 
z
M 52.203125 31.203125 
L 52.203125 0 
L 43.21875 0 
L 43.21875 8.296875 
Q 40.140625 3.328125 35.546875 0.953125 
Q 30.953125 -1.421875 24.3125 -1.421875 
Q 15.921875 -1.421875 10.953125 3.296875 
Q 6 8.015625 6 15.921875 
Q 6 25.140625 12.171875 29.828125 
Q 18.359375 34.515625 30.609375 34.515625 
L 43.21875 34.515625 
L 43.21875 35.40625 
Q 43.21875 41.609375 39.140625 45 
Q 35.0625 48.390625 27.6875 48.390625 
Q 23 48.390625 18.546875 47.265625 
Q 14.109375 46.140625 10.015625 43.890625 
L 10.015625 52.203125 
Q 14.9375 54.109375 19.578125 55.046875 
Q 24.21875 56 28.609375 56 
Q 40.484375 56 46.34375 49.84375 
Q 52.203125 43.703125 52.203125 31.203125 
z
" id="DejaVuSans-97"/>
     <path d="M 45.40625 46.390625 
L 45.40625 75.984375 
L 54.390625 75.984375 
L 54.390625 0 
L 45.40625 0 
L 45.40625 8.203125 
Q 42.578125 3.328125 38.25 0.953125 
Q 33.9375 -1.421875 27.875 -1.421875 
Q 17.96875 -1.421875 11.734375 6.484375 
Q 5.515625 14.40625 5.515625 27.296875 
Q 5.515625 40.1875 11.734375 48.09375 
Q 17.96875 56 27.875 56 
Q 33.9375 56 38.25 53.625 
Q 42.578125 51.265625 45.40625 46.390625 
z
M 14.796875 27.296875 
Q 14.796875 17.390625 18.875 11.75 
Q 22.953125 6.109375 30.078125 6.109375 
Q 37.203125 6.109375 41.296875 11.75 
Q 45.40625 17.390625 45.40625 27.296875 
Q 45.40625 37.203125 41.296875 42.84375 
Q 37.203125 48.484375 30.078125 48.484375 
Q 22.953125 48.484375 18.875 42.84375 
Q 14.796875 37.203125 14.796875 27.296875 
z
" id="DejaVuSans-100"/>
     <path d="M 4.203125 54.6875 
L 13.1875 54.6875 
L 24.421875 12.015625 
L 35.59375 54.6875 
L 46.1875 54.6875 
L 57.421875 12.015625 
L 68.609375 54.6875 
L 77.59375 54.6875 
L 63.28125 0 
L 52.6875 0 
L 40.921875 44.828125 
L 29.109375 0 
L 18.5 0 
z
" id="DejaVuSans-119"/>
     <path d="M 54.890625 33.015625 
L 54.890625 0 
L 45.90625 0 
L 45.90625 32.71875 
Q 45.90625 40.484375 42.875 44.328125 
Q 39.84375 48.1875 33.796875 48.1875 
Q 26.515625 48.1875 22.3125 43.546875 
Q 18.109375 38.921875 18.109375 30.90625 
L 18.109375 0 
L 9.078125 0 
L 9.078125 75.984375 
L 18.109375 75.984375 
L 18.109375 46.1875 
Q 21.34375 51.125 25.703125 53.5625 
Q 30.078125 56 35.796875 56 
Q 45.21875 56 50.046875 50.171875 
Q 54.890625 44.34375 54.890625 33.015625 
z
" id="DejaVuSans-104"/>
    </defs>
    <g transform="translate(197.724375 11.28)scale(0.12 -0.12)">
     <use xlink:href="#DejaVuSans-87"/>
     <use x="98.814453" xlink:href="#DejaVuSans-114"/>
     <use x="139.927734" xlink:href="#DejaVuSans-105"/>
     <use x="167.710938" xlink:href="#DejaVuSans-116"/>
     <use x="206.919922" xlink:href="#DejaVuSans-101"/>
     <use x="268.443359" xlink:href="#DejaVuSans-32"/>
     <use x="300.230469" xlink:href="#DejaVuSans-66"/>
     <use x="368.833984" xlink:href="#DejaVuSans-97"/>
     <use x="430.113281" xlink:href="#DejaVuSans-110"/>
     <use x="493.492188" xlink:href="#DejaVuSans-100"/>
     <use x="556.96875" xlink:href="#DejaVuSans-119"/>
     <use x="638.755859" xlink:href="#DejaVuSans-105"/>
     <use x="666.539062" xlink:href="#DejaVuSans-100"/>
     <use x="730.015625" xlink:href="#DejaVuSans-116"/>
     <use x="769.224609" xlink:href="#DejaVuSans-104"/>
    </g>
   </g>
   <g id="legend_1">
    <g id="patch_7">
     <path d="M 288.469375 98.670625 
L 430.76 98.670625 
Q 432.76 98.670625 432.76 96.670625 
L 432.76 24.28 
Q 432.76 22.28 430.76 22.28 
L 288.469375 22.28 
Q 286.469375 22.28 286.469375 24.28 
L 286.469375 96.670625 
Q 286.469375 98.670625 288.469375 98.670625 
z
" style="fill:#ffffff;opacity:0.8;stroke:#cccccc;stroke-linejoin:miter;"/>
    </g>
    <g id="line2d_30">
     <path d="M 290.469375 30.378438 
L 310.469375 30.378438 
" style="fill:none;stroke:#1f77b4;stroke-linecap:square;"/>
    </g>
    <g id="line2d_31"/>
    <g id="text_16">
     <!-- nvme dual numa -->
     <defs>
      <path d="M 2.984375 54.6875 
L 12.5 54.6875 
L 29.59375 8.796875 
L 46.6875 54.6875 
L 56.203125 54.6875 
L 35.6875 0 
L 23.484375 0 
z
" id="DejaVuSans-118"/>
      <path d="M 9.421875 75.984375 
L 18.40625 75.984375 
L 18.40625 0 
L 9.421875 0 
z
" id="DejaVuSans-108"/>
     </defs>
     <g transform="translate(318.469375 33.878438)scale(0.1 -0.1)">
      <use xlink:href="#DejaVuSans-110"/>
      <use x="63.378906" xlink:href="#DejaVuSans-118"/>
      <use x="122.558594" xlink:href="#DejaVuSans-109"/>
      <use x="219.970703" xlink:href="#DejaVuSans-101"/>
      <use x="281.494141" xlink:href="#DejaVuSans-32"/>
      <use x="313.28125" xlink:href="#DejaVuSans-100"/>
      <use x="376.757812" xlink:href="#DejaVuSans-117"/>
      <use x="440.136719" xlink:href="#DejaVuSans-97"/>
      <use x="501.416016" xlink:href="#DejaVuSans-108"/>
      <use x="529.199219" xlink:href="#DejaVuSans-32"/>
      <use x="560.986328" xlink:href="#DejaVuSans-110"/>
      <use x="624.365234" xlink:href="#DejaVuSans-117"/>
      <use x="687.744141" xlink:href="#DejaVuSans-109"/>
      <use x="785.15625" xlink:href="#DejaVuSans-97"/>
     </g>
    </g>
    <g id="line2d_32">
     <path d="M 290.469375 45.056563 
L 310.469375 45.056563 
" style="fill:none;stroke:#ff7f0e;stroke-linecap:square;"/>
    </g>
    <g id="line2d_33"/>
    <g id="text_17">
     <!-- nvme dual rr -->
     <g transform="translate(318.469375 48.556563)scale(0.1 -0.1)">
      <use xlink:href="#DejaVuSans-110"/>
      <use x="63.378906" xlink:href="#DejaVuSans-118"/>
      <use x="122.558594" xlink:href="#DejaVuSans-109"/>
      <use x="219.970703" xlink:href="#DejaVuSans-101"/>
      <use x="281.494141" xlink:href="#DejaVuSans-32"/>
      <use x="313.28125" xlink:href="#DejaVuSans-100"/>
      <use x="376.757812" xlink:href="#DejaVuSans-117"/>
      <use x="440.136719" xlink:href="#DejaVuSans-97"/>
      <use x="501.416016" xlink:href="#DejaVuSans-108"/>
      <use x="529.199219" xlink:href="#DejaVuSans-32"/>
      <use x="560.986328" xlink:href="#DejaVuSans-114"/>
      <use x="602.083984" xlink:href="#DejaVuSans-114"/>
     </g>
    </g>
    <g id="line2d_34">
     <path d="M 290.469375 59.734688 
L 310.469375 59.734688 
" style="fill:none;stroke:#2ca02c;stroke-linecap:square;"/>
    </g>
    <g id="line2d_35"/>
    <g id="text_18">
     <!-- rnbd dual min-inflight -->
     <defs>
      <path d="M 4.890625 31.390625 
L 31.203125 31.390625 
L 31.203125 23.390625 
L 4.890625 23.390625 
z
" id="DejaVuSans-45"/>
      <path d="M 45.40625 27.984375 
Q 45.40625 37.75 41.375 43.109375 
Q 37.359375 48.484375 30.078125 48.484375 
Q 22.859375 48.484375 18.828125 43.109375 
Q 14.796875 37.75 14.796875 27.984375 
Q 14.796875 18.265625 18.828125 12.890625 
Q 22.859375 7.515625 30.078125 7.515625 
Q 37.359375 7.515625 41.375 12.890625 
Q 45.40625 18.265625 45.40625 27.984375 
z
M 54.390625 6.78125 
Q 54.390625 -7.171875 48.1875 -13.984375 
Q 42 -20.796875 29.203125 -20.796875 
Q 24.46875 -20.796875 20.265625 -20.09375 
Q 16.0625 -19.390625 12.109375 -17.921875 
L 12.109375 -9.1875 
Q 16.0625 -11.328125 19.921875 -12.34375 
Q 23.78125 -13.375 27.78125 -13.375 
Q 36.625 -13.375 41.015625 -8.765625 
Q 45.40625 -4.15625 45.40625 5.171875 
L 45.40625 9.625 
Q 42.625 4.78125 38.28125 2.390625 
Q 33.9375 0 27.875 0 
Q 17.828125 0 11.671875 7.65625 
Q 5.515625 15.328125 5.515625 27.984375 
Q 5.515625 40.671875 11.671875 48.328125 
Q 17.828125 56 27.875 56 
Q 33.9375 56 38.28125 53.609375 
Q 42.625 51.21875 45.40625 46.390625 
L 45.40625 54.6875 
L 54.390625 54.6875 
z
" id="DejaVuSans-103"/>
     </defs>
     <g transform="translate(318.469375 63.234688)scale(0.1 -0.1)">
      <use xlink:href="#DejaVuSans-114"/>
      <use x="41.097656" xlink:href="#DejaVuSans-110"/>
      <use x="104.476562" xlink:href="#DejaVuSans-98"/>
      <use x="167.953125" xlink:href="#DejaVuSans-100"/>
      <use x="231.429688" xlink:href="#DejaVuSans-32"/>
      <use x="263.216797" xlink:href="#DejaVuSans-100"/>
      <use x="326.693359" xlink:href="#DejaVuSans-117"/>
      <use x="390.072266" xlink:href="#DejaVuSans-97"/>
      <use x="451.351562" xlink:href="#DejaVuSans-108"/>
      <use x="479.134766" xlink:href="#DejaVuSans-32"/>
      <use x="510.921875" xlink:href="#DejaVuSans-109"/>
      <use x="608.333984" xlink:href="#DejaVuSans-105"/>
      <use x="636.117188" xlink:href="#DejaVuSans-110"/>
      <use x="699.496094" xlink:href="#DejaVuSans-45"/>
      <use x="735.580078" xlink:href="#DejaVuSans-105"/>
      <use x="763.363281" xlink:href="#DejaVuSans-110"/>
      <use x="826.742188" xlink:href="#DejaVuSans-102"/>
      <use x="861.947266" xlink:href="#DejaVuSans-108"/>
      <use x="889.730469" xlink:href="#DejaVuSans-105"/>
      <use x="917.513672" xlink:href="#DejaVuSans-103"/>
      <use x="980.990234" xlink:href="#DejaVuSans-104"/>
      <use x="1044.369141" xlink:href="#DejaVuSans-116"/>
     </g>
    </g>
    <g id="line2d_36">
     <path d="M 290.469375 74.412813 
L 310.469375 74.412813 
" style="fill:none;stroke:#d62728;stroke-linecap:square;"/>
    </g>
    <g id="line2d_37"/>
    <g id="text_19">
     <!-- rnbd dual min-latency -->
     <defs>
      <path d="M 48.78125 52.59375 
L 48.78125 44.1875 
Q 44.96875 46.296875 41.140625 47.34375 
Q 37.3125 48.390625 33.40625 48.390625 
Q 24.65625 48.390625 19.8125 42.84375 
Q 14.984375 37.3125 14.984375 27.296875 
Q 14.984375 17.28125 19.8125 11.734375 
Q 24.65625 6.203125 33.40625 6.203125 
Q 37.3125 6.203125 41.140625 7.25 
Q 44.96875 8.296875 48.78125 10.40625 
L 48.78125 2.09375 
Q 45.015625 0.34375 40.984375 -0.53125 
Q 36.96875 -1.421875 32.421875 -1.421875 
Q 20.0625 -1.421875 12.78125 6.34375 
Q 5.515625 14.109375 5.515625 27.296875 
Q 5.515625 40.671875 12.859375 48.328125 
Q 20.21875 56 33.015625 56 
Q 37.15625 56 41.109375 55.140625 
Q 45.0625 54.296875 48.78125 52.59375 
z
" id="DejaVuSans-99"/>
      <path d="M 32.171875 -5.078125 
Q 28.375 -14.84375 24.75 -17.8125 
Q 21.140625 -20.796875 15.09375 -20.796875 
L 7.90625 -20.796875 
L 7.90625 -13.28125 
L 13.1875 -13.28125 
Q 16.890625 -13.28125 18.9375 -11.515625 
Q 21 -9.765625 23.484375 -3.21875 
L 25.09375 0.875 
L 2.984375 54.6875 
L 12.5 54.6875 
L 29.59375 11.921875 
L 46.6875 54.6875 
L 56.203125 54.6875 
z
" id="DejaVuSans-121"/>
     </defs>
     <g transform="translate(318.469375 77.912813)scale(0.1 -0.1)">
      <use xlink:href="#DejaVuSans-114"/>
      <use x="41.097656" xlink:href="#DejaVuSans-110"/>
      <use x="104.476562" xlink:href="#DejaVuSans-98"/>
      <use x="167.953125" xlink:href="#DejaVuSans-100"/>
      <use x="231.429688" xlink:href="#DejaVuSans-32"/>
      <use x="263.216797" xlink:href="#DejaVuSans-100"/>
      <use x="326.693359" xlink:href="#DejaVuSans-117"/>
      <use x="390.072266" xlink:href="#DejaVuSans-97"/>
      <use x="451.351562" xlink:href="#DejaVuSans-108"/>
      <use x="479.134766" xlink:href="#DejaVuSans-32"/>
      <use x="510.921875" xlink:href="#DejaVuSans-109"/>
      <use x="608.333984" xlink:href="#DejaVuSans-105"/>
      <use x="636.117188" xlink:href="#DejaVuSans-110"/>
      <use x="699.496094" xlink:href="#DejaVuSans-45"/>
      <use x="735.580078" xlink:href="#DejaVuSans-108"/>
      <use x="763.363281" xlink:href="#DejaVuSans-97"/>
      <use x="824.642578" xlink:href="#DejaVuSans-116"/>
      <use x="863.851562" xlink:href="#DejaVuSans-101"/>
      <use x="925.375" xlink:href="#DejaVuSans-110"/>
      <use x="988.753906" xlink:href="#DejaVuSans-99"/>
      <use x="1043.734375" xlink:href="#DejaVuSans-121"/>
     </g>
    </g>
    <g id="line2d_38">
     <path d="M 290.469375 89.090938 
L 310.469375 89.090938 
" style="fill:none;stroke:#9467bd;stroke-linecap:square;"/>
    </g>
    <g id="line2d_39"/>
    <g id="text_20">
     <!-- rnbd dual rr -->
     <g transform="translate(318.469375 92.590938)scale(0.1 -0.1)">
      <use xlink:href="#DejaVuSans-114"/>
      <use x="41.097656" xlink:href="#DejaVuSans-110"/>
      <use x="104.476562" xlink:href="#DejaVuSans-98"/>
      <use x="167.953125" xlink:href="#DejaVuSans-100"/>
      <use x="231.429688" xlink:href="#DejaVuSans-32"/>
      <use x="263.216797" xlink:href="#DejaVuSans-100"/>
      <use x="326.693359" xlink:href="#DejaVuSans-117"/>
      <use x="390.072266" xlink:href="#DejaVuSans-97"/>
      <use x="451.351562" xlink:href="#DejaVuSans-108"/>
      <use x="479.134766" xlink:href="#DejaVuSans-32"/>
      <use x="510.921875" xlink:href="#DejaVuSans-114"/>
      <use x="552.019531" xlink:href="#DejaVuSans-114"/>
     </g>
    </g>
   </g>
  </g>
 </g>
 <defs>
  <clipPath id="pe198da6189">
   <rect height="290.304" width="380.16" x="57.6" y="17.28"/>
  </clipPath>
 </defs>
</svg>
